<svg width="30" height="30" viewBox="0 0 30 30" fill="none" xmlns="http://www.w3.org/2000/svg">
<path d="M7.5 13.75V18.75M22.5 11.25V16.25M21.25 5C24.3109 5 25.9664 5.46845 26.7901 5.8318C26.8998 5.88019 26.9547 5.90439 27.113 6.05546C27.2079 6.14602 27.3811 6.41174 27.4257 6.53511C27.5 6.74092 27.5 6.85342 27.5 7.07843V20.5139C27.5 21.6499 27.5 22.2179 27.3297 22.5098C27.1564 22.8068 26.9893 22.9449 26.6649 23.059C26.3461 23.1712 25.7025 23.0475 24.4152 22.8002C23.5142 22.6271 22.4457 22.5 21.25 22.5C17.5 22.5 13.75 25 8.75 25C5.68912 25 4.03358 24.5315 3.20985 24.1682C3.10015 24.1198 3.0453 24.0956 2.887 23.9445C2.79211 23.854 2.6189 23.5883 2.57434 23.4649C2.5 23.2591 2.5 23.1466 2.5 22.9216L2.5 9.48607C2.5 8.35011 2.5 7.78213 2.67035 7.49018C2.84363 7.1932 3.01074 7.05515 3.33507 6.94101C3.65392 6.82881 4.29754 6.95248 5.58479 7.19981C6.48577 7.37292 7.55435 7.5 8.75 7.5C12.5 7.5 16.25 5 21.25 5ZM18.125 15C18.125 16.7259 16.7259 18.125 15 18.125C13.2741 18.125 11.875 16.7259 11.875 15C11.875 13.2741 13.2741 11.875 15 11.875C16.7259 11.875 18.125 13.2741 18.125 15Z" stroke="#197DFF" stroke-width="2.5" stroke-linecap="round" stroke-linejoin="round"/>
</svg>
