<svg width="17" height="17" viewBox="0 0 17 17" fill="none" xmlns="http://www.w3.org/2000/svg">
<path d="M4.13789 7.58625V10.3449M12.4138 6.20694V8.96556M11.7241 2.75867C13.4129 2.75867 14.3263 3.01712 14.7807 3.21759C14.8413 3.24429 14.8715 3.25764 14.9589 3.34099C15.0112 3.39096 15.1068 3.53756 15.1314 3.60562C15.1724 3.71918 15.1724 3.78125 15.1724 3.90539V11.3181C15.1724 11.9448 15.1724 12.2582 15.0784 12.4193C14.9828 12.5831 14.8906 12.6593 14.7116 12.7222C14.5357 12.7841 14.1806 12.7159 13.4704 12.5795C12.9733 12.4839 12.3838 12.4138 11.7241 12.4138C9.65513 12.4138 7.58617 13.7931 4.82755 13.7931C3.13878 13.7931 2.22539 13.5347 1.77092 13.3342C1.71039 13.3075 1.68013 13.2942 1.59279 13.2108C1.54044 13.1609 1.44487 13.0143 1.42029 12.9462C1.37927 12.8326 1.37927 12.7706 1.37927 12.6464L1.37927 5.23374C1.37927 4.607 1.37927 4.29363 1.47326 4.13256C1.56886 3.96871 1.66106 3.89254 1.84 3.82957C2.01592 3.76767 2.37102 3.8359 3.08122 3.97236C3.57832 4.06787 4.16788 4.13798 4.82755 4.13798C6.89651 4.13798 8.96548 2.75867 11.7241 2.75867ZM9.99996 8.27591C9.99996 9.22812 9.22804 10 8.27582 10C7.32361 10 6.55169 9.22812 6.55169 8.27591C6.55169 7.32369 7.32361 6.55177 8.27582 6.55177C9.22804 6.55177 9.99996 7.32369 9.99996 8.27591Z" stroke="white" stroke-width="1.5" stroke-linecap="round" stroke-linejoin="round"/>
</svg>
