<svg width="17" height="17" viewBox="0 0 17 17" fill="none" xmlns="http://www.w3.org/2000/svg">
<path d="M12.4137 10.922C13.4178 11.4264 14.2786 12.2358 14.907 13.248C15.0314 13.4485 15.0936 13.5487 15.1151 13.6875C15.1589 13.9695 14.966 14.3162 14.7033 14.4278C14.5741 14.4828 14.4287 14.4828 14.1378 14.4828M11.0344 7.95327C12.0563 7.44544 12.7585 6.39094 12.7585 5.17242C12.7585 3.95389 12.0563 2.89939 11.0344 2.39156M9.65509 5.17242C9.65509 6.8864 8.26563 8.27587 6.55164 8.27587C4.83765 8.27587 3.44819 6.8864 3.44819 5.17242C3.44819 3.45843 4.83765 2.06897 6.55164 2.06897C8.26563 2.06897 9.65509 3.45843 9.65509 5.17242ZM1.7649 13.0609C2.86443 11.41 4.59948 10.3448 6.55164 10.3448C8.5038 10.3448 10.2389 11.41 11.3384 13.0609C11.5793 13.4226 11.6997 13.6034 11.6858 13.8344C11.675 14.0143 11.5571 14.2345 11.4134 14.3432C11.2288 14.4828 10.975 14.4828 10.4673 14.4828H2.63602C2.12831 14.4828 1.87445 14.4828 1.68987 14.3432C1.54616 14.2345 1.42825 14.0143 1.41746 13.8344C1.40359 13.6034 1.52403 13.4226 1.7649 13.0609Z" stroke="white" stroke-width="1.5" stroke-linecap="round" stroke-linejoin="round"/>
</svg>
