<svg width="30" height="30" viewBox="0 0 30 30" fill="none" xmlns="http://www.w3.org/2000/svg">
<path d="M22.5 19.7961C24.3199 20.7103 25.8802 22.1774 27.0191 24.012C27.2446 24.3753 27.3574 24.557 27.3964 24.8085C27.4756 25.3197 27.126 25.9482 26.65 26.1505C26.4157 26.25 26.1521 26.25 25.625 26.25M20 14.4153C21.8522 13.4949 23.125 11.5836 23.125 9.375C23.125 7.16642 21.8522 5.25514 20 4.3347M17.5 9.375C17.5 12.4816 14.9816 15 11.875 15C8.76844 15 6.25004 12.4816 6.25004 9.375C6.25004 6.2684 8.76844 3.75 11.875 3.75C14.9816 3.75 17.5 6.2684 17.5 9.375ZM3.19908 23.6729C5.19196 20.6807 8.33675 18.75 11.875 18.75C15.4133 18.75 18.5581 20.6807 20.551 23.6729C20.9876 24.3284 21.2059 24.6562 21.1807 25.0749C21.1612 25.4009 20.9475 25.8 20.687 25.997C20.3524 26.25 19.8923 26.25 18.9721 26.25H4.77799C3.85775 26.25 3.39764 26.25 3.06309 25.997C2.8026 25.8 2.5889 25.4009 2.56933 25.0749C2.5442 24.6562 2.76249 24.3284 3.19908 23.6729Z" stroke="#6747F0" stroke-width="2.5" stroke-linecap="round" stroke-linejoin="round"/>
</svg>
