<svg width="18" height="18" viewBox="0 0 18 18" fill="none" xmlns="http://www.w3.org/2000/svg">
<g clip-path="url(#clip0_494_672)">
<path d="M9.45459 2.18186L10.7158 5.46103C10.9209 5.99429 11.0235 6.26092 11.1829 6.4852C11.3243 6.68397 11.4979 6.85764 11.6967 6.99897C11.921 7.15845 12.1876 7.261 12.7209 7.4661L16 8.72732L12.7209 9.98854C12.1876 10.1936 11.921 10.2962 11.6967 10.4557C11.4979 10.597 11.3243 10.7707 11.1829 10.9694C11.0235 11.1937 10.9209 11.4603 10.7158 11.9936L9.45459 15.2728L8.19337 11.9936C7.98827 11.4603 7.88572 11.1937 7.72625 10.9694C7.58491 10.7707 7.41124 10.597 7.21247 10.4557C6.9882 10.2962 6.72157 10.1936 6.18831 9.98854L2.90914 8.72732L6.18831 7.4661C6.72157 7.261 6.98819 7.15845 7.21247 6.99897C7.41124 6.85764 7.58491 6.68397 7.72625 6.4852C7.88572 6.26092 7.98827 5.99429 8.19337 5.46103L9.45459 2.18186Z" fill="#E8AA00"/>
<path d="M3.27277 16V12.3637M3.27277 5.09095V1.45459M1.45459 3.27277H5.09095M1.45459 14.1819H5.09095M9.45459 2.18186L8.19337 5.46103C7.98827 5.99429 7.88572 6.26092 7.72625 6.4852C7.58491 6.68397 7.41124 6.85764 7.21247 6.99897C6.98819 7.15845 6.72157 7.261 6.18831 7.4661L2.90914 8.72732L6.18831 9.98854C6.72157 10.1936 6.9882 10.2962 7.21247 10.4557C7.41124 10.597 7.58491 10.7707 7.72625 10.9694C7.88572 11.1937 7.98827 11.4603 8.19337 11.9936L9.45459 15.2728L10.7158 11.9936C10.9209 11.4603 11.0235 11.1937 11.1829 10.9694C11.3243 10.7707 11.4979 10.597 11.6967 10.4557C11.921 10.2962 12.1876 10.1936 12.7209 9.98854L16 8.72732L12.7209 7.4661C12.1876 7.261 11.921 7.15845 11.6967 6.99897C11.4979 6.85764 11.3243 6.68397 11.1829 6.4852C11.0235 6.26092 10.9209 5.99429 10.7158 5.46103L9.45459 2.18186Z" stroke="#E8AA00" stroke-width="1.5" stroke-linecap="round" stroke-linejoin="round"/>
</g>
<defs>
<clipPath id="clip0_494_672">
<rect width="17.4545" height="17.4545" fill="white"/>
</clipPath>
</defs>
</svg>
