<svg width="30" height="30" viewBox="0 0 30 30" fill="none" xmlns="http://www.w3.org/2000/svg">
<path d="M15 20V15M15 10H15.0125M2.5 10.6534V19.3466C2.5 19.6523 2.5 19.8052 2.53454 19.949C2.56516 20.0766 2.61566 20.1985 2.6842 20.3104C2.7615 20.4365 2.8696 20.5446 3.08579 20.7608L9.23921 26.9142C9.4554 27.1304 9.5635 27.2385 9.68964 27.3158C9.80148 27.3843 9.92341 27.4348 10.051 27.4655C10.1948 27.5 10.3477 27.5 10.6534 27.5H19.3466C19.6523 27.5 19.8052 27.5 19.949 27.4655C20.0766 27.4348 20.1985 27.3843 20.3104 27.3158C20.4365 27.2385 20.5446 27.1304 20.7608 26.9142L26.9142 20.7608C27.1304 20.5446 27.2385 20.4365 27.3158 20.3104C27.3843 20.1985 27.4348 20.0766 27.4655 19.949C27.5 19.8052 27.5 19.6523 27.5 19.3466V10.6534C27.5 10.3477 27.5 10.1948 27.4655 10.051C27.4348 9.92341 27.3843 9.80148 27.3158 9.68964C27.2385 9.5635 27.1304 9.4554 26.9142 9.23921L20.7608 3.08579C20.5446 2.8696 20.4365 2.7615 20.3104 2.6842C20.1985 2.61566 20.0766 2.56516 19.949 2.53454C19.8052 2.5 19.6523 2.5 19.3466 2.5H10.6534C10.3477 2.5 10.1948 2.5 10.051 2.53454C9.92341 2.56516 9.80148 2.61566 9.68964 2.6842C9.5635 2.7615 9.4554 2.8696 9.23921 3.08579L3.08579 9.23921C2.8696 9.4554 2.7615 9.5635 2.6842 9.68964C2.61566 9.80148 2.56516 9.92341 2.53454 10.051C2.5 10.1948 2.5 10.3477 2.5 10.6534Z" stroke="#BD4B57" stroke-width="2.5" stroke-linecap="round" stroke-linejoin="round"/>
</svg>
