<svg width="17" height="17" viewBox="0 0 17 17" fill="none" xmlns="http://www.w3.org/2000/svg">
<path d="M13.7931 8.62065V4.68962C13.7931 3.53089 13.7931 2.95152 13.5676 2.50895C13.3693 2.11965 13.0528 1.80313 12.6635 1.60478C12.2209 1.37927 11.6415 1.37927 10.4828 1.37927H6.06901C4.91028 1.37927 4.33092 1.37927 3.88834 1.60478C3.49904 1.80313 3.18253 2.11965 2.98417 2.50895C2.75867 2.95152 2.75867 3.53089 2.75867 4.68962V11.862C2.75867 13.0208 2.75867 13.6001 2.98417 14.0427C3.18253 14.432 3.49904 14.7485 3.88834 14.9469C4.33092 15.1724 4.91028 15.1724 6.06901 15.1724H8.27591M9.65522 7.58617H5.51729M6.8966 10.3448H5.51729M11.0345 4.82755H5.51729M10 13.1034L11.3794 14.4827L14.4828 11.3793" stroke="#E6EEF6" stroke-width="1.5" stroke-linecap="round" stroke-linejoin="round"/>
</svg>
