<svg width="20" height="20" viewBox="0 0 20 20" fill="none" xmlns="http://www.w3.org/2000/svg">
<g clip-path="url(#clip0_439_1823)">
<path d="M7.50008 14.1667L3.33341 18.3333M12.5001 14.1667L16.6667 18.3333M10.0001 1.66667V3.33334M10.0001 18.3333V14.1667M4.33342 14.1667H15.6667C16.6002 14.1667 17.0669 14.1667 17.4234 13.985C17.737 13.8252 17.992 13.5703 18.1518 13.2567C18.3334 12.9001 18.3334 12.4334 18.3334 11.5V6.00001C18.3334 5.06658 18.3334 4.59987 18.1518 4.24335C17.992 3.92975 17.737 3.67478 17.4234 3.51499C17.0669 3.33334 16.6002 3.33334 15.6667 3.33334H4.33341C3.39999 3.33334 2.93328 3.33334 2.57676 3.51499C2.26316 3.67478 2.00819 3.92975 1.8484 4.24335C1.66675 4.59987 1.66675 5.06658 1.66675 6.00001V11.5C1.66675 12.4334 1.66675 12.9001 1.8484 13.2567C2.00819 13.5703 2.26316 13.8252 2.57676 13.985C2.93328 14.1667 3.39999 14.1667 4.33342 14.1667Z" stroke="#48505E" stroke-width="1.5" stroke-linecap="round" stroke-linejoin="round"/>
</g>
<defs>
<clipPath id="clip0_439_1823">
<rect width="20" height="20" fill="white"/>
</clipPath>
</defs>
</svg>
