<svg width="17" height="17" viewBox="0 0 17 17" fill="none" xmlns="http://www.w3.org/2000/svg">
<path d="M9.65522 1.56516V4.41381C9.65522 4.80005 9.65522 4.99317 9.73039 5.14069C9.79651 5.27046 9.90201 5.37596 10.0318 5.44208C10.1793 5.51725 10.3724 5.51725 10.7587 5.51725H13.6073M6.20694 11.0344L7.58625 12.4138L10.6897 9.31031M9.65522 1.37927H6.06901C4.91028 1.37927 4.33092 1.37927 3.88834 1.60478C3.49904 1.80313 3.18253 2.11965 2.98417 2.50895C2.75867 2.95152 2.75867 3.53089 2.75867 4.68962V11.862C2.75867 13.0208 2.75867 13.6001 2.98417 14.0427C3.18253 14.432 3.49904 14.7485 3.88834 14.9469C4.33092 15.1724 4.91028 15.1724 6.06901 15.1724H10.4828C11.6415 15.1724 12.2209 15.1724 12.6635 14.9469C13.0528 14.7485 13.3693 14.432 13.5676 14.0427C13.7931 13.6001 13.7931 13.0208 13.7931 11.862V5.5172L9.65522 1.37927Z" stroke="#E6EEF6" stroke-width="1.5" stroke-linecap="round" stroke-linejoin="round"/>
</svg>
