<svg width="20" height="20" viewBox="0 0 20 20" fill="none" xmlns="http://www.w3.org/2000/svg">
<g clip-path="url(#clip0_439_1256)">
<path d="M10.0001 5.83335H6.25008C5.69755 5.83335 5.16764 5.61386 4.77694 5.22316C4.38624 4.83246 4.16675 4.30255 4.16675 3.75002C4.16675 3.19749 4.38624 2.66758 4.77694 2.27688C5.16764 1.88618 5.69755 1.66669 6.25008 1.66669C9.16675 1.66669 10.0001 5.83335 10.0001 5.83335ZM10.0001 5.83335H13.7501C14.3026 5.83335 14.8325 5.61386 15.2232 5.22316C15.6139 4.83246 15.8334 4.30255 15.8334 3.75002C15.8334 3.19749 15.6139 2.66758 15.2232 2.27688C14.8325 1.88618 14.3026 1.66669 13.7501 1.66669C10.8334 1.66669 10.0001 5.83335 10.0001 5.83335ZM10.0001 5.83335L10.0001 18.3334M1.66675 11.6667H18.3334M1.66675 8.50002L1.66675 15.6667C1.66675 16.6001 1.66675 17.0668 1.8484 17.4233C2.00819 17.7369 2.26316 17.9919 2.57676 18.1517C2.93328 18.3334 3.39999 18.3334 4.33341 18.3334L15.6667 18.3334C16.6002 18.3334 17.0669 18.3334 17.4234 18.1517C17.737 17.9919 17.992 17.7369 18.1518 17.4233C18.3334 17.0668 18.3334 16.6001 18.3334 15.6667V8.50002C18.3334 7.5666 18.3334 7.09989 18.1518 6.74337C17.992 6.42977 17.737 6.1748 17.4234 6.01501C17.0669 5.83336 16.6002 5.83336 15.6667 5.83336L4.33342 5.83335C3.39999 5.83335 2.93328 5.83335 2.57676 6.01501C2.26316 6.1748 2.00819 6.42977 1.8484 6.74337C1.66675 7.09989 1.66675 7.5666 1.66675 8.50002Z" stroke="#48505E" stroke-width="1.5" stroke-linecap="round" stroke-linejoin="round"/>
</g>
<defs>
<clipPath id="clip0_439_1256">
<rect width="20" height="20" fill="white"/>
</clipPath>
</defs>
</svg>
