<svg width="15" height="15" viewBox="0 0 15 15" fill="none" xmlns="http://www.w3.org/2000/svg">
<path d="M13.75 13.125V11.875C13.75 10.7101 12.9533 9.73129 11.875 9.45376M9.6875 2.05672C10.6037 2.42759 11.25 3.32582 11.25 4.375C11.25 5.42418 10.6037 6.32241 9.6875 6.69328M10.625 13.125C10.625 11.9601 10.625 11.3777 10.4347 10.9183C10.181 10.3057 9.69428 9.81904 9.08171 9.5653C8.62228 9.375 8.03985 9.375 6.875 9.375H5C3.83515 9.375 3.25272 9.375 2.79329 9.5653C2.18072 9.81904 1.69404 10.3057 1.4403 10.9183C1.25 11.3777 1.25 11.9601 1.25 13.125M8.4375 4.375C8.4375 5.75571 7.31821 6.875 5.9375 6.875C4.55679 6.875 3.4375 5.75571 3.4375 4.375C3.4375 2.99429 4.55679 1.875 5.9375 1.875C7.31821 1.875 8.4375 2.99429 8.4375 4.375Z" stroke="#E6EEF6" stroke-width="1.5" stroke-linecap="round" stroke-linejoin="round"/>
</svg>
