<svg width="32" height="32" viewBox="0 0 32 32" fill="none" xmlns="http://www.w3.org/2000/svg">
<rect width="32" height="32" rx="16" fill="white"/>
<path d="M20.5 20L25.5 25M25.5 20L20.5 25M16 19.5H11.5C10.1044 19.5 9.40665 19.5 8.83886 19.6722C7.56045 20.06 6.56004 21.0605 6.17224 22.3389C6 22.9067 6 23.6044 6 25M18.5 11.5C18.5 13.9853 16.4853 16 14 16C11.5147 16 9.5 13.9853 9.5 11.5C9.5 9.01472 11.5147 7 14 7C16.4853 7 18.5 9.01472 18.5 11.5Z" stroke="#DDCF00" stroke-width="2" stroke-linecap="round" stroke-linejoin="round"/>
</svg>
