<svg width="32" height="32" viewBox="0 0 32 32" fill="none" xmlns="http://www.w3.org/2000/svg">
<rect width="32" height="32" rx="16" fill="white"/>
<path d="M20 22H26M19.5 7.29076C20.9659 7.88415 22 9.32131 22 11C22 12.6787 20.9659 14.1159 19.5 14.7092M16 19H12C10.1362 19 9.20435 19 8.46927 19.3045C7.48915 19.7105 6.71046 20.4892 6.30448 21.4693C6 22.2044 6 23.1362 6 25M17.5 11C17.5 13.2091 15.7091 15 13.5 15C11.2909 15 9.5 13.2091 9.5 11C9.5 8.79086 11.2909 7 13.5 7C15.7091 7 17.5 8.79086 17.5 11Z" stroke="#DDCF00" stroke-width="2" stroke-linecap="round" stroke-linejoin="round"/>
</svg>
