<svg width="305" height="104" viewBox="0 0 305 104" fill="none" xmlns="http://www.w3.org/2000/svg">
<rect width="305" height="103.114" rx="6.78381" fill="white"/>
<rect x="8.14062" y="8.14056" width="136.219" height="86.8327" rx="2.71352" fill="#F7F6E7"/>
<path d="M21.4261 28.9947V23.4292H19.2702V22.5365H24.6362V23.4292H22.4898V28.9947H21.4261ZM26.5543 29.1181C25.0822 29.1181 24.1895 28.1209 24.1895 26.4684C24.1895 24.7494 25.1107 23.7996 26.5543 23.7996C28.0264 23.7996 28.9191 24.8158 28.9191 26.4684C28.9191 28.1779 27.9979 29.1181 26.5543 29.1181ZM26.5543 28.2634C27.4186 28.2634 27.8839 27.6365 27.8839 26.4684C27.8839 25.3097 27.4091 24.6544 26.5543 24.6544C25.6995 24.6544 25.2247 25.2907 25.2247 26.4684C25.2247 27.6175 25.6995 28.2634 26.5543 28.2634ZM29.7647 27.4846V24.7209H29.0809V23.9326H29.7647V22.7644H30.7809V23.9326H31.8731V24.7209H30.7809V27.4276C30.7809 28.0069 30.9424 28.2824 31.6547 28.2824H31.8541V29.0232C31.7401 29.0801 31.5027 29.1181 31.2178 29.1181C30.2301 29.1181 29.7647 28.5768 29.7647 27.4846ZM33.3192 25.5851H32.303C32.4644 24.4644 33.2337 23.7996 34.4969 23.7996C35.874 23.7996 36.5578 24.6069 36.5578 25.7846V27.76C36.5578 28.3678 36.6148 28.7192 36.7287 28.9947H35.665C35.589 28.8047 35.5606 28.5388 35.5511 28.2539C35.1237 28.8522 34.4684 29.1181 33.8605 29.1181C32.8348 29.1181 32.132 28.6338 32.132 27.665C32.132 26.9717 32.5119 26.4589 33.2717 26.2024C33.946 25.9745 34.6298 25.9175 35.5416 25.908V25.7941C35.5416 25.0533 35.1997 24.6544 34.4209 24.6544C33.7656 24.6544 33.4142 25.0153 33.3192 25.5851ZM33.1577 27.627C33.1577 28.0544 33.5091 28.3203 34.0505 28.3203C34.8957 28.3203 35.5416 27.646 35.5416 26.8293V26.6013C33.5946 26.6203 33.1577 27.0477 33.1577 27.627ZM37.5553 28.9947V22.1566H38.5715V28.9947H37.5553ZM42.0507 24.132C42.0507 25.832 45.9636 24.4929 45.9636 27.1332C45.9636 28.4058 44.9283 29.1181 43.5132 29.1181C42.0791 29.1181 41.0914 28.4628 40.8255 27.1142H41.9367C42.1171 27.8455 42.6585 28.2444 43.5227 28.2444C44.406 28.2444 44.8714 27.855 44.8714 27.2756C44.8714 25.4522 40.9585 26.8103 40.9585 24.2175C40.9585 23.2488 41.7752 22.413 43.2473 22.413C44.52 22.413 45.5647 23.0208 45.7926 24.4359H44.6624C44.482 23.6382 43.9786 23.2868 43.2188 23.2868C42.478 23.2868 42.0507 23.6192 42.0507 24.132ZM46.7726 27.4846V24.7209H46.0888V23.9326H46.7726V22.7644H47.7888V23.9326H48.881V24.7209H47.7888V27.4276C47.7888 28.0069 47.9503 28.2824 48.6626 28.2824H48.862V29.0232C48.748 29.0801 48.5106 29.1181 48.2257 29.1181C47.238 29.1181 46.7726 28.5768 46.7726 27.4846ZM52.559 26.8957V23.9326H53.5657V28.9947H52.559V28.3109C52.2266 28.8522 51.6947 29.1181 51.0489 29.1181C50.0137 29.1181 49.3679 28.5103 49.3679 27.3136V23.9326H50.3841V27.1047C50.3841 27.836 50.688 28.2729 51.3623 28.2729C52.1031 28.2729 52.559 27.5986 52.559 26.8957ZM56.4255 29.1181C55.0864 29.1181 54.2791 28.1209 54.2791 26.4684C54.2791 24.7494 55.1054 23.7996 56.4255 23.7996C57.0049 23.7996 57.4797 24.0371 57.8027 24.5024V22.1566H58.8189V28.9947H57.8027V28.3773C57.4797 28.8522 57.0049 29.1181 56.4255 29.1181ZM56.5585 28.2634C57.3658 28.2634 57.8027 27.6365 57.8027 26.4684C57.8027 25.3097 57.3468 24.6544 56.5585 24.6544C55.7512 24.6544 55.3144 25.3002 55.3144 26.4684C55.3144 27.6175 55.7702 28.2634 56.5585 28.2634ZM64.26 27.3421C63.9846 28.5198 63.1108 29.1181 61.9237 29.1181C60.4326 29.1181 59.5208 28.1209 59.5208 26.4684C59.5208 24.7494 60.4326 23.7996 61.8762 23.7996C63.3388 23.7996 64.222 24.7873 64.222 26.4114V26.6583H60.556C60.613 27.6935 61.0974 28.2729 61.9237 28.2729C62.5695 28.2729 63.0254 27.9689 63.1963 27.3421H64.26ZM61.8762 24.6449C61.1449 24.6449 60.708 25.1103 60.5845 25.965H63.1678C63.0443 25.1103 62.598 24.6449 61.8762 24.6449ZM64.9631 28.9947V23.9326H65.9793V24.6069C66.3212 24.0655 66.8531 23.7996 67.5084 23.7996C68.5626 23.7996 69.2179 24.4169 69.2179 25.6136V28.9947H68.2112V25.8226C68.2112 25.0913 67.8883 24.6449 67.195 24.6449C66.4352 24.6449 65.9793 25.3192 65.9793 26.022V28.9947H64.9631ZM70.3099 27.4846V24.7209H69.6261V23.9326H70.3099V22.7644H71.3261V23.9326H72.4183V24.7209H71.3261V27.4276C71.3261 28.0069 71.4876 28.2824 72.1999 28.2824H72.3993V29.0232C72.2854 29.0801 72.0479 29.1181 71.763 29.1181C70.7753 29.1181 70.3099 28.5768 70.3099 27.4846ZM73.7125 25.2622C73.7125 26.5538 76.951 25.4711 76.951 27.5321C76.951 28.4913 76.0868 29.1181 74.8616 29.1181C73.6365 29.1181 72.7722 28.5483 72.5823 27.3421H73.5985C73.703 27.9784 74.1778 28.3298 74.8901 28.3298C75.5739 28.3298 75.9348 28.0259 75.9348 27.5986C75.9348 26.3354 72.7437 27.3991 72.7437 25.3192C72.7437 24.5309 73.3611 23.7996 74.6432 23.7996C75.7734 23.7996 76.6091 24.322 76.7706 25.5851H75.7544C75.6404 24.8728 75.2415 24.6069 74.5957 24.6069C74.0354 24.6069 73.7125 24.8823 73.7125 25.2622Z" fill="#344054"/>
<path d="M33.7292 60.9964C33.7292 63.9813 31.3684 66.3963 26.8911 66.3963C22.9294 66.3963 20.3244 64.2255 19.8088 60.7251H23.3364C23.6349 62.4346 24.7474 63.52 26.864 63.52C29.0077 63.52 30.2016 62.5703 30.2016 60.8608C30.2016 59.5583 29.4418 58.3372 26.1585 58.3372H25.1544V55.7593H25.9685C29.1705 55.7593 29.7132 54.4297 29.7132 53.3714C29.7132 51.9061 28.7092 51.0107 26.8911 51.0107C24.9645 51.0107 23.9605 52.0147 23.662 53.6971H20.1887C20.65 50.278 23.1193 48.1343 26.9182 48.1343C31.0428 48.1343 33.2407 50.468 33.2407 53.3443C33.2407 54.9453 32.5624 56.1392 31.0157 56.8719C32.9423 57.7402 33.7292 59.1784 33.7292 60.9964ZM42.1675 66.3963C37.7716 66.3963 35.1937 63.0044 35.1937 57.2789C35.1937 51.4448 37.7987 48.1343 42.1675 48.1343C46.5634 48.1343 49.1412 51.5262 49.1412 57.2789C49.1412 63.0858 46.5362 66.3963 42.1675 66.3963ZM42.1675 63.4657C44.3654 63.4657 45.5594 61.2678 45.5594 57.2789C45.5594 53.29 44.3383 51.0649 42.1675 51.0649C39.9424 51.0649 38.7484 53.2629 38.7484 57.2789C38.7484 61.2135 39.9695 63.4657 42.1675 63.4657ZM57.5253 66.3963C53.1293 66.3963 50.5515 63.0044 50.5515 57.2789C50.5515 51.4448 53.1565 48.1343 57.5253 48.1343C61.9212 48.1343 64.499 51.5262 64.499 57.2789C64.499 63.0858 61.894 66.3963 57.5253 66.3963ZM57.5253 63.4657C59.7232 63.4657 60.9172 61.2678 60.9172 57.2789C60.9172 53.29 59.6961 51.0649 57.5253 51.0649C55.3002 51.0649 54.1062 53.2629 54.1062 57.2789C54.1062 61.2135 55.3273 63.4657 57.5253 63.4657Z" fill="#0D0D0D"/>
<path d="M19.6076 81.9893V81.469L21.5618 79.3298C21.7911 79.0792 21.98 78.8614 22.1284 78.6764C22.2768 78.4895 22.3867 78.3141 22.458 78.1503C22.5312 77.9846 22.5678 77.8111 22.5678 77.63C22.5678 77.4218 22.5177 77.2416 22.4175 77.0894C22.3192 76.9371 22.1843 76.8196 22.0128 76.7367C21.8413 76.6538 21.6485 76.6124 21.4346 76.6124C21.2072 76.6124 21.0087 76.6596 20.8391 76.754C20.6714 76.8465 20.5413 76.9766 20.4488 77.1443C20.3583 77.312 20.313 77.5085 20.313 77.734H19.6307C19.6307 77.3871 19.7107 77.0826 19.8707 76.8205C20.0306 76.5584 20.2484 76.3541 20.524 76.2077C20.8015 76.0612 21.1128 75.988 21.4577 75.988C21.8046 75.988 22.112 76.0612 22.3799 76.2077C22.6478 76.3541 22.8579 76.5517 23.0101 76.8003C23.1624 77.0489 23.2385 77.3255 23.2385 77.63C23.2385 77.8477 23.199 78.0607 23.12 78.2688C23.0429 78.475 22.908 78.7053 22.7152 78.9597C22.5245 79.2122 22.2595 79.5206 21.9203 79.8848L20.5905 81.3071V81.3533H23.3426V81.9893H19.6076ZM27.5198 79.3182V81.9893H26.8376V77.549H27.4967V78.2428H27.5545C27.6586 78.0173 27.8166 77.8362 28.0286 77.6993C28.2406 77.5606 28.5142 77.4912 28.8496 77.4912C29.1502 77.4912 29.4133 77.5529 29.6388 77.6762C29.8643 77.7976 30.0396 77.9826 30.1649 78.2312C30.2902 78.4779 30.3528 78.7901 30.3528 79.1679V81.9893H29.6706V79.2141C29.6706 78.8653 29.58 78.5936 29.3988 78.3989C29.2177 78.2023 28.9691 78.104 28.653 78.104C28.4352 78.104 28.2406 78.1513 28.0691 78.2457C27.8995 78.3401 27.7655 78.4779 27.6672 78.6591C27.5689 78.8402 27.5198 79.0599 27.5198 79.3182ZM33.4612 82.0818C33.0333 82.0818 32.6643 81.9874 32.354 81.7985C32.0456 81.6077 31.8076 81.3418 31.64 81.0007C31.4742 80.6576 31.3913 80.2587 31.3913 79.8039C31.3913 79.349 31.4742 78.9482 31.64 78.6013C31.8076 78.2524 32.0408 77.9807 32.3395 77.7861C32.6402 77.5895 32.9909 77.4912 33.3918 77.4912C33.6231 77.4912 33.8514 77.5297 34.0769 77.6068C34.3024 77.6839 34.5077 77.8092 34.6927 77.9826C34.8777 78.1542 35.0251 78.3816 35.135 78.6649C35.2448 78.9482 35.2997 79.297 35.2997 79.7113V80.0004H31.877V79.4107H34.6059C34.6059 79.1602 34.5558 78.9366 34.4556 78.74C34.3573 78.5435 34.2166 78.3883 34.0336 78.2746C33.8524 78.1609 33.6385 78.104 33.3918 78.104C33.1201 78.104 32.8849 78.1715 32.6864 78.3064C32.4899 78.4394 32.3386 78.6128 32.2326 78.8268C32.1266 79.0407 32.0736 79.27 32.0736 79.5148V79.9079C32.0736 80.2433 32.1314 80.5275 32.247 80.7607C32.3646 80.992 32.5274 81.1683 32.7356 81.2897C32.9437 81.4092 33.1856 81.469 33.4612 81.469C33.6404 81.469 33.8023 81.4439 33.9468 81.3938C34.0933 81.3418 34.2195 81.2647 34.3255 81.1625C34.4315 81.0585 34.5134 80.9293 34.5713 80.7752L35.2304 80.9602C35.161 81.1837 35.0444 81.3803 34.8806 81.5499C34.7168 81.7176 34.5144 81.8486 34.2735 81.9431C34.0326 82.0356 33.7618 82.0818 33.4612 82.0818ZM37.3436 81.9893L35.9906 77.549H36.7076L37.6673 80.9486H37.7136L38.6618 77.549H39.3903L40.3269 80.9371H40.3731L41.3329 77.549H42.0498L40.6969 81.9893H40.0262L39.0549 78.5781H38.9855L38.0142 81.9893H37.3436ZM48.3865 78.5435L47.7737 78.7169C47.7351 78.6148 47.6783 78.5155 47.6031 78.4191C47.5299 78.3209 47.4297 78.2399 47.3025 78.1763C47.1753 78.1127 47.0124 78.0809 46.8139 78.0809C46.5422 78.0809 46.3157 78.1436 46.1346 78.2688C45.9553 78.3922 45.8657 78.5492 45.8657 78.74C45.8657 78.9096 45.9274 79.0436 46.0507 79.1419C46.1741 79.2401 46.3668 79.322 46.6289 79.3876L47.288 79.5495C47.685 79.6458 47.9808 79.7933 48.1755 79.9918C48.3701 80.1883 48.4675 80.4418 48.4675 80.752C48.4675 81.0064 48.3942 81.2338 48.2478 81.4343C48.1032 81.6347 47.9009 81.7927 47.6407 81.9084C47.3805 82.024 47.0779 82.0818 46.733 82.0818C46.2801 82.0818 45.9052 81.9835 45.6084 81.787C45.3116 81.5904 45.1237 81.3032 45.0447 80.9255L45.6923 80.7636C45.7539 81.0026 45.8705 81.1818 46.0421 81.3013C46.2155 81.4208 46.442 81.4805 46.7214 81.4805C47.0394 81.4805 47.2919 81.4131 47.4788 81.2782C47.6677 81.1413 47.7621 80.9775 47.7621 80.7867C47.7621 80.6326 47.7081 80.5034 47.6002 80.3994C47.4923 80.2934 47.3265 80.2144 47.103 80.1623L46.3629 79.9889C45.9563 79.8925 45.6576 79.7431 45.4668 79.5408C45.2779 79.3365 45.1835 79.0811 45.1835 78.7747C45.1835 78.5242 45.2538 78.3026 45.3945 78.1098C45.5371 77.9171 45.7308 77.7658 45.9756 77.656C46.2222 77.5461 46.5017 77.4912 46.8139 77.4912C47.2533 77.4912 47.5983 77.5876 47.8488 77.7803C48.1013 77.973 48.2805 78.2274 48.3865 78.5435ZM51.4255 77.549V78.1272H49.1244V77.549H51.4255ZM49.7951 76.4852H50.4773V80.7174C50.4773 80.9101 50.5053 81.0546 50.5611 81.151C50.619 81.2454 50.6922 81.309 50.7808 81.3418C50.8714 81.3726 50.9668 81.388 51.067 81.388C51.1422 81.388 51.2039 81.3842 51.252 81.3765C51.3002 81.3668 51.3388 81.3591 51.3677 81.3533L51.5064 81.9662C51.4602 81.9835 51.3956 82.0009 51.3128 82.0182C51.2299 82.0375 51.1249 82.0471 50.9977 82.0471C50.8049 82.0471 50.6161 82.0057 50.4311 81.9228C50.248 81.84 50.0957 81.7137 49.9743 81.5441C49.8548 81.3745 49.7951 81.1606 49.7951 80.9024V76.4852ZM55.2501 80.1739V77.549H55.9323V81.9893H55.2501V81.2377H55.2038C55.0997 81.4632 54.9379 81.6549 54.7182 81.813C54.4984 81.9691 54.2209 82.0471 53.8856 82.0471C53.6081 82.0471 53.3614 81.9864 53.1455 81.865C52.9297 81.7417 52.7601 81.5567 52.6368 81.31C52.5134 81.0614 52.4517 80.7482 52.4517 80.3705V77.549H53.134V80.3242C53.134 80.648 53.2246 80.9062 53.4057 81.0989C53.5888 81.2917 53.822 81.388 54.1053 81.388C54.2749 81.388 54.4474 81.3447 54.6228 81.2579C54.8001 81.1712 54.9485 81.0382 55.0679 80.859C55.1894 80.6798 55.2501 80.4514 55.2501 80.1739ZM58.8585 82.0818C58.4885 82.0818 58.1618 81.9884 57.8785 81.8014C57.5952 81.6125 57.3736 81.3466 57.2137 81.0035C57.0537 80.6586 56.9737 80.251 56.9737 79.7807C56.9737 79.3143 57.0537 78.9096 57.2137 78.5666C57.3736 78.2235 57.5962 77.9585 57.8814 77.7716C58.1667 77.5847 58.4962 77.4912 58.8701 77.4912C59.1592 77.4912 59.3876 77.5394 59.5552 77.6357C59.7248 77.7302 59.8539 77.8381 59.9426 77.9595C60.0332 78.079 60.1035 78.1773 60.1536 78.2544H60.2114V76.0689H60.8937V81.9893H60.2346V81.3071H60.1536C60.1035 81.388 60.0322 81.4902 59.9397 81.6135C59.8472 81.7349 59.7152 81.8438 59.5437 81.9402C59.3721 82.0346 59.1438 82.0818 58.8585 82.0818ZM58.951 81.469C59.2247 81.469 59.456 81.3977 59.6448 81.255C59.8337 81.1105 59.9773 80.911 60.0756 80.6566C60.1739 80.4003 60.223 80.1045 60.223 79.7692C60.223 79.4377 60.1748 79.1476 60.0785 78.899C59.9821 78.6485 59.8395 78.4538 59.6506 78.3151C59.4618 78.1744 59.2286 78.104 58.951 78.104C58.662 78.104 58.4211 78.1782 58.2283 78.3266C58.0375 78.4731 57.894 78.6726 57.7976 78.925C57.7032 79.1756 57.656 79.457 57.656 79.7692C57.656 80.0852 57.7041 80.3724 57.8005 80.6306C57.8988 80.8869 58.0433 81.0912 58.2341 81.2435C58.4268 81.3938 58.6658 81.469 58.951 81.469ZM64.0996 82.0818C63.6718 82.0818 63.3027 81.9874 62.9924 81.7985C62.6841 81.6077 62.4461 81.3418 62.2784 81.0007C62.1126 80.6576 62.0298 80.2587 62.0298 79.8039C62.0298 79.349 62.1126 78.9482 62.2784 78.6013C62.4461 78.2524 62.6792 77.9807 62.978 77.7861C63.2786 77.5895 63.6294 77.4912 64.0302 77.4912C64.2615 77.4912 64.4899 77.5297 64.7154 77.6068C64.9408 77.6839 65.1461 77.8092 65.3311 77.9826C65.5161 78.1542 65.6635 78.3816 65.7734 78.6649C65.8832 78.9482 65.9382 79.297 65.9382 79.7113V80.0004H62.5154V79.4107H65.2444C65.2444 79.1602 65.1943 78.9366 65.0941 78.74C64.9958 78.5435 64.8551 78.3883 64.672 78.2746C64.4908 78.1609 64.2769 78.104 64.0302 78.104C63.7585 78.104 63.5234 78.1715 63.3249 78.3064C63.1283 78.4394 62.977 78.6128 62.871 78.8268C62.765 79.0407 62.712 79.27 62.712 79.5148V79.9079C62.712 80.2433 62.7698 80.5275 62.8855 80.7607C63.003 80.992 63.1659 81.1683 63.374 81.2897C63.5821 81.4092 63.824 81.469 64.0996 81.469C64.2788 81.469 64.4407 81.4439 64.5853 81.3938C64.7317 81.3418 64.858 81.2647 64.964 81.1625C65.07 81.0585 65.1519 80.9293 65.2097 80.7752L65.8688 80.9602C65.7994 81.1837 65.6828 81.3803 65.519 81.5499C65.3552 81.7176 65.1528 81.8486 64.9119 81.9431C64.671 82.0356 64.4003 82.0818 64.0996 82.0818ZM67.6582 79.3182V81.9893H66.976V77.549H67.6351V78.2428H67.6929C67.797 78.0173 67.955 77.8362 68.167 77.6993C68.379 77.5606 68.6527 77.4912 68.988 77.4912C69.2886 77.4912 69.5517 77.5529 69.7772 77.6762C70.0027 77.7976 70.1781 77.9826 70.3033 78.2312C70.4286 78.4779 70.4912 78.7901 70.4912 79.1679V81.9893H69.809V79.2141C69.809 78.8653 69.7184 78.5936 69.5373 78.3989C69.3561 78.2023 69.1075 78.104 68.7914 78.104C68.5736 78.104 68.379 78.1513 68.2075 78.2457C68.0379 78.3401 67.9039 78.4779 67.8056 78.6591C67.7074 78.8402 67.6582 79.0599 67.6582 79.3182ZM73.669 77.549V78.1272H71.3679V77.549H73.669ZM72.0385 76.4852H72.7208V80.7174C72.7208 80.9101 72.7487 81.0546 72.8046 81.151C72.8624 81.2454 72.9357 81.309 73.0243 81.3418C73.1149 81.3726 73.2103 81.388 73.3105 81.388C73.3857 81.388 73.4473 81.3842 73.4955 81.3765C73.5437 81.3668 73.5822 81.3591 73.6112 81.3533L73.7499 81.9662C73.7037 81.9835 73.6391 82.0009 73.5562 82.0182C73.4734 82.0375 73.3683 82.0471 73.2411 82.0471C73.0484 82.0471 72.8595 82.0057 72.6745 81.9228C72.4914 81.84 72.3392 81.7137 72.2178 81.5441C72.0983 81.3745 72.0385 81.1606 72.0385 80.9024V76.4852ZM77.7609 78.5435L77.1481 78.7169C77.1095 78.6148 77.0527 78.5155 76.9775 78.4191C76.9043 78.3209 76.8041 78.2399 76.6769 78.1763C76.5497 78.1127 76.3868 78.0809 76.1883 78.0809C75.9166 78.0809 75.6901 78.1436 75.509 78.2688C75.3297 78.3922 75.2401 78.5492 75.2401 78.74C75.2401 78.9096 75.3018 79.0436 75.4251 79.1419C75.5485 79.2401 75.7412 79.322 76.0033 79.3876L76.6624 79.5495C77.0594 79.6458 77.3553 79.7933 77.5499 79.9918C77.7446 80.1883 77.8419 80.4418 77.8419 80.752C77.8419 81.0064 77.7686 81.2338 77.6222 81.4343C77.4776 81.6347 77.2753 81.7927 77.0151 81.9084C76.7549 82.024 76.4524 82.0818 76.1074 82.0818C75.6545 82.0818 75.2796 81.9835 74.9828 81.787C74.6861 81.5904 74.4982 81.3032 74.4191 80.9255L75.0667 80.7636C75.1284 81.0026 75.245 81.1818 75.4165 81.3013C75.5899 81.4208 75.8164 81.4805 76.0958 81.4805C76.4138 81.4805 76.6663 81.4131 76.8532 81.2782C77.0421 81.1413 77.1365 80.9775 77.1365 80.7867C77.1365 80.6326 77.0826 80.5034 76.9746 80.3994C76.8667 80.2934 76.701 80.2144 76.4774 80.1623L75.7374 79.9889C75.3307 79.8925 75.032 79.7431 74.8412 79.5408C74.6523 79.3365 74.5579 79.0811 74.5579 78.7747C74.5579 78.5242 74.6282 78.3026 74.7689 78.1098C74.9115 77.9171 75.1052 77.7658 75.35 77.656C75.5967 77.5461 75.8761 77.4912 76.1883 77.4912C76.6277 77.4912 76.9727 77.5876 77.2232 77.7803C77.4757 77.973 77.6549 78.2274 77.7609 78.5435Z" fill="#097C47"/>
<rect x="106.37" y="18.9947" width="27.1352" height="27.1352" rx="13.5676" fill="white"/>
<path d="M128.418 40.194V38.4981C128.418 36.9176 127.337 35.5896 125.874 35.2131M122.906 25.177C124.149 25.6802 125.026 26.8989 125.026 28.3224C125.026 29.7459 124.149 30.9646 122.906 31.4677M124.178 40.194C124.178 38.6136 124.178 37.8234 123.919 37.2001C123.575 36.369 122.915 35.7086 122.084 35.3644C121.46 35.1062 120.67 35.1062 119.09 35.1062H116.546C114.965 35.1062 114.175 35.1062 113.552 35.3644C112.721 35.7086 112.06 36.369 111.716 37.2001C111.458 37.8234 111.458 38.6136 111.458 40.194M121.21 28.3224C121.21 30.1957 119.691 31.7143 117.818 31.7143C115.945 31.7143 114.426 30.1957 114.426 28.3224C114.426 26.4491 115.945 24.9305 117.818 24.9305C119.691 24.9305 121.21 26.4491 121.21 28.3224Z" stroke="#DDCF00" stroke-width="1.69595" stroke-linecap="round" stroke-linejoin="round"/>
<rect x="160.641" y="8.14056" width="136.219" height="86.8327" rx="2.71352" fill="#EAE7F7"/>
<path d="M173.926 28.9947V23.4292H171.77V22.5365H177.136V23.4292H174.99V28.9947H173.926ZM179.054 29.1181C177.582 29.1181 176.689 28.1209 176.689 26.4684C176.689 24.7494 177.611 23.7996 179.054 23.7996C180.526 23.7996 181.419 24.8158 181.419 26.4684C181.419 28.1779 180.498 29.1181 179.054 29.1181ZM179.054 28.2634C179.919 28.2634 180.384 27.6365 180.384 26.4684C180.384 25.3097 179.909 24.6544 179.054 24.6544C178.2 24.6544 177.725 25.2907 177.725 26.4684C177.725 27.6175 178.2 28.2634 179.054 28.2634ZM182.265 27.4846V24.7209H181.581V23.9326H182.265V22.7644H183.281V23.9326H184.373V24.7209H183.281V27.4276C183.281 28.0069 183.442 28.2824 184.155 28.2824H184.354V29.0232C184.24 29.0801 184.003 29.1181 183.718 29.1181C182.73 29.1181 182.265 28.5768 182.265 27.4846ZM185.819 25.5851H184.803C184.964 24.4644 185.734 23.7996 186.997 23.7996C188.374 23.7996 189.058 24.6069 189.058 25.7846V27.76C189.058 28.3678 189.115 28.7192 189.229 28.9947H188.165C188.089 28.8047 188.061 28.5388 188.051 28.2539C187.624 28.8522 186.968 29.1181 186.361 29.1181C185.335 29.1181 184.632 28.6338 184.632 27.665C184.632 26.9717 185.012 26.4589 185.772 26.2024C186.446 25.9745 187.13 25.9175 188.042 25.908V25.7941C188.042 25.0533 187.7 24.6544 186.921 24.6544C186.266 24.6544 185.914 25.0153 185.819 25.5851ZM185.658 27.627C185.658 28.0544 186.009 28.3203 186.55 28.3203C187.396 28.3203 188.042 27.646 188.042 26.8293V26.6013C186.095 26.6203 185.658 27.0477 185.658 27.627ZM190.055 28.9947V22.1566H191.071V28.9947H190.055ZM195.239 28.9947V23.4292H193.083V22.5365H198.449V23.4292H196.303V28.9947H195.239ZM202.741 27.3421C202.466 28.5198 201.592 29.1181 200.405 29.1181C198.914 29.1181 198.002 28.1209 198.002 26.4684C198.002 24.7494 198.914 23.7996 200.358 23.7996C201.82 23.7996 202.703 24.7873 202.703 26.4114V26.6583H199.038C199.095 27.6935 199.579 28.2729 200.405 28.2729C201.051 28.2729 201.507 27.9689 201.678 27.3421H202.741ZM200.358 24.6449C199.626 24.6449 199.189 25.1103 199.066 25.965H201.649C201.526 25.1103 201.079 24.6449 200.358 24.6449ZM204.404 25.5851H203.388C203.549 24.4644 204.318 23.7996 205.581 23.7996C206.959 23.7996 207.642 24.6069 207.642 25.7846V27.76C207.642 28.3678 207.699 28.7192 207.813 28.9947H206.75C206.674 28.8047 206.645 28.5388 206.636 28.2539C206.208 28.8522 205.553 29.1181 204.945 29.1181C203.919 29.1181 203.217 28.6338 203.217 27.665C203.217 26.9717 203.597 26.4589 204.356 26.2024C205.031 25.9745 205.714 25.9175 206.626 25.908V25.7941C206.626 25.0533 206.284 24.6544 205.505 24.6544C204.85 24.6544 204.499 25.0153 204.404 25.5851ZM204.242 27.627C204.242 28.0544 204.594 28.3203 205.135 28.3203C205.98 28.3203 206.626 27.646 206.626 26.8293V26.6013C204.679 26.6203 204.242 27.0477 204.242 27.627ZM212.923 25.6991H211.907C211.783 24.9773 211.318 24.6544 210.729 24.6544C209.884 24.6544 209.428 25.3002 209.428 26.4684C209.428 27.6175 209.903 28.2729 210.758 28.2729C211.366 28.2729 211.793 27.9405 211.945 27.2946H212.952C212.733 28.5578 211.859 29.1181 210.739 29.1181C209.276 29.1181 208.393 28.1114 208.393 26.4684C208.393 24.7494 209.295 23.7996 210.729 23.7996C211.859 23.7996 212.752 24.4359 212.923 25.6991ZM213.622 28.9947V22.1566H214.638V24.6069C214.98 24.0655 215.512 23.7996 216.167 23.7996C217.221 23.7996 217.877 24.4169 217.877 25.6136V28.9947H216.87V25.8226C216.87 25.0913 216.547 24.6449 215.854 24.6449C215.094 24.6449 214.638 25.3192 214.638 26.022V28.9947H213.622ZM223.328 27.3421C223.053 28.5198 222.179 29.1181 220.992 29.1181C219.501 29.1181 218.589 28.1209 218.589 26.4684C218.589 24.7494 219.501 23.7996 220.944 23.7996C222.407 23.7996 223.29 24.7873 223.29 26.4114V26.6583H219.624C219.681 27.6935 220.165 28.2729 220.992 28.2729C221.637 28.2729 222.093 27.9689 222.264 27.3421H223.328ZM220.944 24.6449C220.213 24.6449 219.776 25.1103 219.653 25.965H222.236C222.112 25.1103 221.666 24.6449 220.944 24.6449ZM224.031 28.9947V23.9326H225.047V24.6829C225.38 24.075 225.902 23.7996 226.491 23.7996C226.69 23.7996 226.88 23.8471 226.975 23.9326V24.8253C226.823 24.7778 226.643 24.7588 226.434 24.7588C225.465 24.7588 225.047 25.3477 225.047 26.2309V28.9947H224.031ZM228.197 25.2622C228.197 26.5538 231.436 25.4711 231.436 27.5321C231.436 28.4913 230.572 29.1181 229.346 29.1181C228.121 29.1181 227.257 28.5483 227.067 27.3421H228.083C228.188 27.9784 228.663 28.3298 229.375 28.3298C230.059 28.3298 230.42 28.0259 230.42 27.5986C230.42 26.3354 227.229 27.3991 227.229 25.3192C227.229 24.5309 227.846 23.7996 229.128 23.7996C230.258 23.7996 231.094 24.322 231.255 25.5851H230.239C230.125 24.8728 229.726 24.6069 229.081 24.6069C228.52 24.6069 228.197 24.8823 228.197 25.2622Z" fill="#344054"/>
<path d="M186.229 60.1552C186.229 63.71 183.896 66.3963 179.554 66.3963C175.592 66.3963 173.069 64.3069 172.58 60.915H176.053C176.352 62.516 177.492 63.52 179.527 63.52C181.643 63.52 182.756 62.2718 182.756 60.1824C182.756 58.3915 181.888 56.7633 179.473 56.7633C177.899 56.7633 176.922 57.4689 176.379 58.31L173.259 58.0116L173.801 48.5414H185.334V51.2278H176.623L176.406 54.8639C177.302 54.294 178.36 53.9413 179.771 53.9413C184.33 53.9413 186.229 56.7633 186.229 60.1552ZM194.667 66.3963C190.272 66.3963 187.694 63.0044 187.694 57.2789C187.694 51.4448 190.299 48.1343 194.667 48.1343C199.063 48.1343 201.641 51.5262 201.641 57.2789C201.641 63.0858 199.036 66.3963 194.667 66.3963ZM194.667 63.4657C196.865 63.4657 198.059 61.2678 198.059 57.2789C198.059 53.29 196.838 51.0649 194.667 51.0649C192.442 51.0649 191.248 53.2629 191.248 57.2789C191.248 61.2135 192.47 63.4657 194.667 63.4657Z" fill="#0D0D0D"/>
<path d="M172.108 81.9893V81.469L174.062 79.3298C174.291 79.0792 174.48 78.8614 174.628 78.6764C174.777 78.4895 174.887 78.3141 174.958 78.1503C175.031 77.9846 175.068 77.8111 175.068 77.63C175.068 77.4218 175.018 77.2416 174.917 77.0894C174.819 76.9371 174.684 76.8196 174.513 76.7367C174.341 76.6538 174.149 76.6124 173.935 76.6124C173.707 76.6124 173.509 76.6596 173.339 76.754C173.171 76.8465 173.041 76.9766 172.949 77.1443C172.858 77.312 172.813 77.5085 172.813 77.734H172.131C172.131 77.3871 172.211 77.0826 172.371 76.8205C172.531 76.5584 172.748 76.3541 173.024 76.2077C173.302 76.0612 173.613 75.988 173.958 75.988C174.305 75.988 174.612 76.0612 174.88 76.2077C175.148 76.3541 175.358 76.5517 175.51 76.8003C175.662 77.0489 175.738 77.3255 175.738 77.63C175.738 77.8477 175.699 78.0607 175.62 78.2688C175.543 78.475 175.408 78.7053 175.215 78.9597C175.024 79.2122 174.759 79.5206 174.42 79.8848L173.09 81.3071V81.3533H175.843V81.9893H172.108ZM180.02 79.3182V81.9893H179.338V77.549H179.997V78.2428H180.054C180.159 78.0173 180.317 77.8362 180.529 77.6993C180.741 77.5606 181.014 77.4912 181.35 77.4912C181.65 77.4912 181.913 77.5529 182.139 77.6762C182.364 77.7976 182.54 77.9826 182.665 78.2312C182.79 78.4779 182.853 78.7901 182.853 79.1679V81.9893H182.171V79.2141C182.171 78.8653 182.08 78.5936 181.899 78.3989C181.718 78.2023 181.469 78.104 181.153 78.104C180.935 78.104 180.741 78.1513 180.569 78.2457C180.399 78.3401 180.266 78.4779 180.167 78.6591C180.069 78.8402 180.02 79.0599 180.02 79.3182ZM185.961 82.0818C185.533 82.0818 185.164 81.9874 184.854 81.7985C184.546 81.6077 184.308 81.3418 184.14 81.0007C183.974 80.6576 183.891 80.2587 183.891 79.8039C183.891 79.349 183.974 78.9482 184.14 78.6013C184.308 78.2524 184.541 77.9807 184.84 77.7861C185.14 77.5895 185.491 77.4912 185.892 77.4912C186.123 77.4912 186.351 77.5297 186.577 77.6068C186.802 77.6839 187.008 77.8092 187.193 77.9826C187.378 78.1542 187.525 78.3816 187.635 78.6649C187.745 78.9482 187.8 79.297 187.8 79.7113V80.0004H184.377V79.4107H187.106C187.106 79.1602 187.056 78.9366 186.956 78.74C186.857 78.5435 186.717 78.3883 186.534 78.2746C186.352 78.1609 186.138 78.104 185.892 78.104C185.62 78.104 185.385 78.1715 185.186 78.3064C184.99 78.4394 184.839 78.6128 184.733 78.8268C184.627 79.0407 184.574 79.27 184.574 79.5148V79.9079C184.574 80.2433 184.631 80.5275 184.747 80.7607C184.865 80.992 185.027 81.1683 185.236 81.2897C185.444 81.4092 185.686 81.469 185.961 81.469C186.14 81.469 186.302 81.4439 186.447 81.3938C186.593 81.3418 186.72 81.2647 186.826 81.1625C186.932 81.0585 187.013 80.9293 187.071 80.7752L187.73 80.9602C187.661 81.1837 187.544 81.3803 187.381 81.5499C187.217 81.7176 187.014 81.8486 186.773 81.9431C186.533 82.0356 186.262 82.0818 185.961 82.0818ZM189.844 81.9893L188.491 77.549H189.208L190.167 80.9486H190.214L191.162 77.549H191.89L192.827 80.9371H192.873L193.833 77.549H194.55L193.197 81.9893H192.526L191.555 78.5781H191.486L190.514 81.9893H189.844ZM199.672 77.549V78.1272H197.371V77.549H199.672ZM198.042 76.4852H198.724V80.7174C198.724 80.9101 198.752 81.0546 198.808 81.151C198.866 81.2454 198.939 81.309 199.028 81.3418C199.118 81.3726 199.214 81.388 199.314 81.388C199.389 81.388 199.451 81.3842 199.499 81.3765C199.547 81.3668 199.586 81.3591 199.615 81.3533L199.753 81.9662C199.707 81.9835 199.642 82.0009 199.56 82.0182C199.477 82.0375 199.372 82.0471 199.245 82.0471C199.052 82.0471 198.863 82.0057 198.678 81.9228C198.495 81.84 198.343 81.7137 198.221 81.5441C198.102 81.3745 198.042 81.1606 198.042 80.9024V76.4852ZM202.513 82.0818C202.085 82.0818 201.716 81.9874 201.405 81.7985C201.097 81.6077 200.859 81.3418 200.691 81.0007C200.526 80.6576 200.443 80.2587 200.443 79.8039C200.443 79.349 200.526 78.9482 200.691 78.6013C200.859 78.2524 201.092 77.9807 201.391 77.7861C201.692 77.5895 202.042 77.4912 202.443 77.4912C202.674 77.4912 202.903 77.5297 203.128 77.6068C203.354 77.6839 203.559 77.8092 203.744 77.9826C203.929 78.1542 204.077 78.3816 204.186 78.6649C204.296 78.9482 204.351 79.297 204.351 79.7113V80.0004H200.928V79.4107H203.657C203.657 79.1602 203.607 78.9366 203.507 78.74C203.409 78.5435 203.268 78.3883 203.085 78.2746C202.904 78.1609 202.69 78.104 202.443 78.104C202.171 78.104 201.936 78.1715 201.738 78.3064C201.541 78.4394 201.39 78.6128 201.284 78.8268C201.178 79.0407 201.125 79.27 201.125 79.5148V79.9079C201.125 80.2433 201.183 80.5275 201.298 80.7607C201.416 80.992 201.579 81.1683 201.787 81.2897C201.995 81.4092 202.237 81.469 202.513 81.469C202.692 81.469 202.854 81.4439 202.998 81.3938C203.145 81.3418 203.271 81.2647 203.377 81.1625C203.483 81.0585 203.565 80.9293 203.623 80.7752L204.282 80.9602C204.212 81.1837 204.096 81.3803 203.932 81.5499C203.768 81.7176 203.566 81.8486 203.325 81.9431C203.084 82.0356 202.813 82.0818 202.513 82.0818ZM206.696 82.0934C206.414 82.0934 206.159 82.0404 205.93 81.9344C205.7 81.8265 205.518 81.6713 205.383 81.469C205.248 81.2647 205.181 81.018 205.181 80.7289C205.181 80.4745 205.231 80.2683 205.331 80.1103C205.431 79.9503 205.565 79.8251 205.733 79.7345C205.901 79.6439 206.086 79.5764 206.288 79.5321C206.492 79.4859 206.698 79.4492 206.904 79.4223C207.174 79.3876 207.392 79.3616 207.56 79.3442C207.73 79.3249 207.853 79.2931 207.93 79.2488C208.009 79.2045 208.049 79.1274 208.049 79.0175V78.9944C208.049 78.7092 207.97 78.4876 207.814 78.3295C207.66 78.1715 207.426 78.0925 207.112 78.0925C206.786 78.0925 206.531 78.1638 206.346 78.3064C206.161 78.449 206.031 78.6013 205.956 78.7632L205.308 78.5319C205.424 78.2621 205.578 78.052 205.771 77.9017C205.965 77.7494 206.177 77.6434 206.407 77.5837C206.638 77.522 206.865 77.4912 207.089 77.4912C207.231 77.4912 207.395 77.5085 207.58 77.5432C207.767 77.576 207.947 77.6444 208.121 77.7485C208.296 77.8525 208.442 78.0096 208.557 78.2197C208.673 78.4297 208.731 78.7111 208.731 79.0638V81.9893H208.049V81.388H208.014C207.968 81.4844 207.891 81.5875 207.783 81.6973C207.675 81.8072 207.531 81.9007 207.352 81.9778C207.173 82.0548 206.954 82.0934 206.696 82.0934ZM206.8 81.4805C207.07 81.4805 207.297 81.4275 207.482 81.3215C207.669 81.2155 207.81 81.0787 207.904 80.911C208 80.7434 208.049 80.567 208.049 80.382V79.7576C208.02 79.7923 207.956 79.8241 207.858 79.853C207.761 79.88 207.65 79.9041 207.522 79.9253C207.397 79.9445 207.275 79.9619 207.155 79.9773C207.038 79.9908 206.942 80.0024 206.869 80.012C206.692 80.0351 206.526 80.0727 206.372 80.1247C206.22 80.1748 206.096 80.251 206.002 80.3531C205.909 80.4533 205.863 80.5902 205.863 80.7636C205.863 81.0007 205.951 81.1799 206.126 81.3013C206.303 81.4208 206.528 81.4805 206.8 81.4805ZM211.78 82.0818C211.364 82.0818 211.005 81.9835 210.704 81.787C210.404 81.5904 210.173 81.3196 210.011 80.9746C209.849 80.6297 209.768 80.2356 209.768 79.7923C209.768 79.3413 209.851 78.9434 210.016 78.5984C210.184 78.2515 210.417 77.9807 210.716 77.7861C211.017 77.5895 211.367 77.4912 211.768 77.4912C212.081 77.4912 212.362 77.549 212.612 77.6646C212.863 77.7803 213.068 77.9422 213.228 78.1503C213.388 78.3584 213.487 78.6013 213.526 78.8788H212.844C212.792 78.6764 212.676 78.4972 212.497 78.3411C212.319 78.1831 212.081 78.104 211.78 78.104C211.514 78.104 211.281 78.1734 211.08 78.3122C210.882 78.449 210.727 78.6427 210.615 78.8932C210.505 79.1419 210.45 79.4338 210.45 79.7692C210.45 80.1122 210.504 80.4109 210.612 80.6653C210.722 80.9197 210.876 81.1173 211.075 81.2579C211.275 81.3986 211.51 81.469 211.78 81.469C211.957 81.469 212.118 81.4381 212.263 81.3765C212.407 81.3148 212.53 81.2261 212.63 81.1105C212.73 80.9949 212.801 80.8561 212.844 80.6942H213.526C213.487 80.9563 213.392 81.1924 213.24 81.4025C213.089 81.6106 212.89 81.7764 212.641 81.8997C212.395 82.0211 212.108 82.0818 211.78 82.0818ZM215.206 79.3182V81.9893H214.523V76.0689H215.206V78.2428H215.263C215.367 78.0135 215.523 77.8313 215.732 77.6964C215.942 77.5596 216.221 77.4912 216.57 77.4912C216.873 77.4912 217.138 77.5519 217.365 77.6733C217.592 77.7928 217.769 77.9769 217.894 78.2255C218.021 78.4721 218.085 78.7863 218.085 79.1679V81.9893H217.403V79.2141C217.403 78.8614 217.311 78.5887 217.128 78.396C216.947 78.2014 216.695 78.104 216.373 78.104C216.15 78.104 215.949 78.1513 215.772 78.2457C215.597 78.3401 215.458 78.4779 215.356 78.6591C215.256 78.8402 215.206 79.0599 215.206 79.3182ZM221.195 82.0818C220.767 82.0818 220.398 81.9874 220.087 81.7985C219.779 81.6077 219.541 81.3418 219.373 81.0007C219.208 80.6576 219.125 80.2587 219.125 79.8039C219.125 79.349 219.208 78.9482 219.373 78.6013C219.541 78.2524 219.774 77.9807 220.073 77.7861C220.374 77.5895 220.724 77.4912 221.125 77.4912C221.356 77.4912 221.585 77.5297 221.81 77.6068C222.036 77.6839 222.241 77.8092 222.426 77.9826C222.611 78.1542 222.759 78.3816 222.868 78.6649C222.978 78.9482 223.033 79.297 223.033 79.7113V80.0004H219.61V79.4107H222.339C222.339 79.1602 222.289 78.9366 222.189 78.74C222.091 78.5435 221.95 78.3883 221.767 78.2746C221.586 78.1609 221.372 78.104 221.125 78.104C220.853 78.104 220.618 78.1715 220.42 78.3064C220.223 78.4394 220.072 78.6128 219.966 78.8268C219.86 79.0407 219.807 79.27 219.807 79.5148V79.9079C219.807 80.2433 219.865 80.5275 219.98 80.7607C220.098 80.992 220.261 81.1683 220.469 81.2897C220.677 81.4092 220.919 81.469 221.195 81.469C221.374 81.469 221.536 81.4439 221.68 81.3938C221.827 81.3418 221.953 81.2647 222.059 81.1625C222.165 81.0585 222.247 80.9293 222.305 80.7752L222.964 80.9602C222.894 81.1837 222.778 81.3803 222.614 81.5499C222.45 81.7176 222.248 81.8486 222.007 81.9431C221.766 82.0356 221.495 82.0818 221.195 82.0818ZM224.071 81.9893V77.549H224.73V78.2197H224.776C224.857 78 225.004 77.8217 225.216 77.6849C225.428 77.548 225.667 77.4796 225.933 77.4796C225.983 77.4796 226.045 77.4806 226.121 77.4825C226.196 77.4844 226.253 77.4873 226.291 77.4912V78.185C226.268 78.1792 226.215 78.1705 226.132 78.159C226.051 78.1455 225.965 78.1387 225.875 78.1387C225.659 78.1387 225.466 78.184 225.297 78.2746C225.129 78.3633 224.996 78.4866 224.898 78.6446C224.801 78.8007 224.753 78.979 224.753 79.1794V81.9893H224.071ZM230.245 78.5435L229.632 78.7169C229.594 78.6148 229.537 78.5155 229.462 78.4191C229.388 78.3209 229.288 78.2399 229.161 78.1763C229.034 78.1127 228.871 78.0809 228.672 78.0809C228.401 78.0809 228.174 78.1436 227.993 78.2688C227.814 78.3922 227.724 78.5492 227.724 78.74C227.724 78.9096 227.786 79.0436 227.909 79.1419C228.033 79.2401 228.225 79.322 228.487 79.3876L229.147 79.5495C229.544 79.6458 229.839 79.7933 230.034 79.9918C230.229 80.1883 230.326 80.4418 230.326 80.752C230.326 81.0064 230.253 81.2338 230.106 81.4343C229.962 81.6347 229.759 81.7927 229.499 81.9084C229.239 82.024 228.936 82.0818 228.591 82.0818C228.139 82.0818 227.764 81.9835 227.467 81.787C227.17 81.5904 226.982 81.3032 226.903 80.9255L227.551 80.7636C227.612 81.0026 227.729 81.1818 227.901 81.3013C228.074 81.4208 228.3 81.4805 228.58 81.4805C228.898 81.4805 229.15 81.4131 229.337 81.2782C229.526 81.1413 229.621 80.9775 229.621 80.7867C229.621 80.6326 229.567 80.5034 229.459 80.3994C229.351 80.2934 229.185 80.2144 228.962 80.1623L228.221 79.9889C227.815 79.8925 227.516 79.7431 227.325 79.5408C227.136 79.3365 227.042 79.0811 227.042 78.7747C227.042 78.5242 227.112 78.3026 227.253 78.1098C227.396 77.9171 227.589 77.7658 227.834 77.656C228.081 77.5461 228.36 77.4912 228.672 77.4912C229.112 77.4912 229.457 77.5876 229.707 77.7803C229.96 77.973 230.139 78.2274 230.245 78.5435Z" fill="#097C47"/>
<rect x="258.87" y="18.9947" width="27.1352" height="27.1352" rx="13.5676" fill="white"/>
<path d="M277.526 35.8159C278.76 36.436 279.819 37.4313 280.591 38.6759C280.744 38.9223 280.821 39.0455 280.847 39.2162C280.901 39.563 280.664 39.9893 280.341 40.1265C280.182 40.194 280.003 40.194 279.646 40.194M275.83 32.1656C277.086 31.5412 277.95 30.2446 277.95 28.7464C277.95 27.2481 277.086 25.9515 275.83 25.3271M274.134 28.7464C274.134 30.8538 272.425 32.5623 270.318 32.5623C268.21 32.5623 266.502 30.8538 266.502 28.7464C266.502 26.6389 268.21 24.9305 270.318 24.9305C272.425 24.9305 274.134 26.6389 274.134 28.7464ZM264.432 38.4458C265.784 36.4159 267.917 35.1062 270.318 35.1062C272.718 35.1062 274.851 36.4159 276.203 38.4458C276.5 38.8905 276.648 39.1128 276.631 39.3969C276.617 39.618 276.472 39.8888 276.296 40.0224C276.069 40.194 275.757 40.194 275.132 40.194H265.503C264.879 40.194 264.567 40.194 264.34 40.0224C264.163 39.8888 264.018 39.618 264.005 39.3969C263.988 39.1128 264.136 38.8905 264.432 38.4458Z" stroke="#6747F0" stroke-width="1.69595" stroke-linecap="round" stroke-linejoin="round"/>
</svg>
