<svg width="32" height="32" viewBox="0 0 32 32" fill="none" xmlns="http://www.w3.org/2000/svg">
<rect width="32" height="32" rx="16" fill="white"/>
<path d="M24 16.5V10.8C24 9.11984 24 8.27976 23.673 7.63803C23.3854 7.07354 22.9265 6.6146 22.362 6.32698C21.7202 6 20.8802 6 19.2 6H12.8C11.1198 6 10.2798 6 9.63803 6.32698C9.07354 6.6146 8.6146 7.07354 8.32698 7.63803C8 8.27976 8 9.11984 8 10.8V21.2C8 22.8802 8 23.7202 8.32698 24.362C8.6146 24.9265 9.07354 25.3854 9.63803 25.673C10.2798 26 11.1198 26 12.8 26H16M18 15H12M14 19H12M20 11H12M18.5 23L20.5 25L25 20.5" stroke="#6747F0" stroke-width="2" stroke-linecap="round" stroke-linejoin="round"/>
</svg>
