<svg width="274" height="90" viewBox="0 0 274 90" fill="none" xmlns="http://www.w3.org/2000/svg">
<path d="M7.04374 11.6942C9.32625 10.6442 32.4764 0 32.9597 0C33.443 0 56.9737 10.49 59.2959 11.5258C59.4181 11.5803 59.4799 11.694 59.4799 11.8278V12.4922C59.4799 12.6246 59.4193 12.7373 59.299 12.7926C57.0225 13.8387 34.0108 24.402 33.0444 24.402C32.212 24.402 17.6922 17.9437 12.4552 15.6022V18.5557L12.7031 22.6875C12.7072 22.7557 12.7316 22.8206 12.7716 22.876C12.919 23.0802 13.279 23.6132 13.3025 23.9784C13.3264 24.3503 13.0887 24.7579 12.9302 24.9853C12.8521 25.0974 12.8338 25.2441 12.8894 25.3688C12.9963 25.6087 13.162 26.0164 13.2178 26.3508C13.2886 26.7758 13.4187 30.2215 13.4594 31.3397C13.4664 31.5314 13.3128 31.6887 13.1209 31.6887H10.017C9.82261 31.6887 9.66796 31.5277 9.6788 31.3336C9.74007 30.237 9.92762 26.9572 9.99805 26.605C10.0616 26.2873 10.2204 25.6362 10.2959 25.3303C10.3216 25.226 10.2967 25.116 10.2354 25.0278C10.0765 24.7991 9.79078 24.3222 9.82859 23.8937C9.86264 23.5078 10.1435 23.0659 10.2725 22.8809C10.3135 22.8223 10.3382 22.7537 10.3405 22.6822L10.5912 14.7671L7.06593 13.222C6.94268 13.1679 6.86307 13.0461 6.86307 12.9115V11.9945C6.86307 11.8621 6.92353 11.7495 7.04374 11.6942Z" fill="white"/>
<path d="M33.3833 27.1981C32.8527 27.1981 20.6587 21.7054 18.0943 20.5477C17.8698 20.4463 17.6237 20.6141 17.6237 20.8604V30.0809C17.6237 30.5708 17.9712 30.9883 18.4482 31.1004C24.373 32.4924 32.8171 37.2809 33.3833 37.2809C33.9473 37.2809 42.5546 32.5314 48.134 31.2633C48.6177 31.1533 48.9735 30.7326 48.9735 30.2365V20.6168C48.9735 20.3679 48.7225 20.1999 48.4975 20.3064C45.9388 21.5179 33.9132 27.1981 33.3833 27.1981Z" fill="white"/>
<path d="M25.9271 38.806C22.5642 37.1553 20.5593 36.269 16.8611 35.671C14.2135 35.2429 12.6797 35.372 9.99805 35.4168C7.92975 35.4514 4.90614 35.7215 3.94699 35.8115C3.77348 35.8277 3.64336 35.9733 3.64336 36.1476V39.7835C3.64336 39.9853 3.81764 40.1427 4.01837 40.1219C4.75933 40.0449 6.44165 39.8782 7.62563 39.8228C11.0987 39.66 13.1059 39.5158 16.5222 40.1617C19.4628 40.7176 21.0527 41.3681 23.8089 42.5341C27.6719 44.1683 32.536 47.872 33.1291 47.872C33.7222 47.872 36.2695 45.8036 38.3823 44.6523C40.3836 43.5619 41.5107 42.9345 43.6356 42.1104C45.6656 41.3231 46.8512 40.9871 48.9735 40.5006C51.3545 39.9547 52.7197 39.7029 55.1587 39.5686C57.7362 39.4266 61.5204 39.8786 62.6847 40.0296C62.8778 40.0546 63.0522 39.9134 63.0684 39.7193L63.3505 36.3332C63.3656 36.1524 63.2374 35.9923 63.0572 35.9712C61.6577 35.807 55.981 35.195 52.1932 35.5863C50.3589 35.7758 49.3332 35.9483 47.5331 36.3489C45.652 36.7675 44.5949 37.0339 42.7883 37.7045C38.6864 39.2272 33.807 43.3814 33.1291 43.3814C32.4513 43.3814 28.9184 40.2742 25.9271 38.806Z" fill="white"/>
<path d="M15.1665 41.6868C10.0574 40.9318 2.25994 41.9493 0.762046 42.1588C0.610357 42.18 0.496179 42.3009 0.478623 42.453L0.0524575 46.1465C0.0263621 46.3726 0.224298 46.5606 0.448584 46.5215C1.59605 46.3217 4.69973 45.8052 6.86307 45.6691C10.001 45.4716 11.7881 45.4858 14.9123 45.8385C19.3143 46.3355 21.8202 46.8893 25.9271 48.5499C28.9875 49.7873 32.2818 52.278 33.3833 52.278C34.4848 52.278 37.7604 49.7502 40.7548 48.5499C44.7334 46.955 47.2654 46.3113 51.5154 45.7538C56.7106 45.0723 64.3855 46.2136 66.3143 46.5256C66.5404 46.5622 66.7361 46.3698 66.7061 46.1428L66.208 42.3716C66.1877 42.218 66.0685 42.0981 65.9145 42.0808C64.6656 41.941 59.1754 41.3599 55.4977 41.5173C51.29 41.6974 48.9205 41.7507 44.8218 43.0425C40.0232 44.5548 33.8917 49.143 33.1291 49.143C32.3666 49.143 29.3773 46.6613 26.9439 45.4996C22.5058 43.3809 20.0316 42.4058 15.1665 41.6868Z" fill="white"/>
<path d="M82.2678 39.1392V12.4437H100.256V17.0972H87.9119V23.4582H99.3305V28.1116H87.9119V34.4857H100.308V39.1392H82.2678ZM112.017 39.465C110.496 39.465 109.119 39.074 107.885 38.2919C106.659 37.5011 105.686 36.341 104.965 34.8116C104.252 33.2735 103.896 31.3877 103.896 29.1544C103.896 26.8603 104.265 24.9529 105.004 23.4321C105.743 21.9027 106.725 20.76 107.95 20.0039C109.184 19.2392 110.535 18.8569 112.004 18.8569C113.125 18.8569 114.059 19.0481 114.806 19.4304C115.562 19.8041 116.17 20.2733 116.631 20.8382C117.1 21.3943 117.457 21.9418 117.7 22.4806H117.869V12.4437H123.409V39.1392H117.935V35.9326H117.7C117.439 36.4887 117.07 37.0405 116.592 37.588C116.123 38.1268 115.51 38.5743 114.754 38.9306C114.007 39.2869 113.094 39.465 112.017 39.465ZM113.776 35.0462C114.671 35.0462 115.427 34.8029 116.044 34.3163C116.67 33.8209 117.148 33.1301 117.478 32.2437C117.817 31.3573 117.987 30.3189 117.987 29.1284C117.987 27.9378 117.822 26.9037 117.491 26.0261C117.161 25.1484 116.683 24.4706 116.058 23.9926C115.432 23.5147 114.671 23.2757 113.776 23.2757C112.864 23.2757 112.095 23.5234 111.469 24.0187C110.844 24.514 110.37 25.2005 110.048 26.0782C109.727 26.9559 109.566 27.9726 109.566 29.1284C109.566 30.2928 109.727 31.3226 110.048 32.2176C110.379 33.104 110.852 33.7992 111.469 34.3032C112.095 34.7985 112.864 35.0462 113.776 35.0462ZM140.814 30.6143V19.1176H146.367V39.1392H141.036V35.5024H140.827C140.375 36.6756 139.623 37.6184 138.572 38.331C137.529 39.0436 136.256 39.3999 134.753 39.3999C133.415 39.3999 132.237 39.0957 131.22 38.4874C130.204 37.8791 129.408 37.0145 128.835 35.8935C128.27 34.7725 127.983 33.4299 127.975 31.8657V19.1176H133.528V30.875C133.536 32.0569 133.853 32.991 134.479 33.6775C135.105 34.364 135.943 34.7073 136.995 34.7073C137.664 34.7073 138.29 34.5552 138.872 34.2511C139.454 33.9382 139.923 33.4777 140.28 32.8694C140.645 32.2611 140.823 31.5094 140.814 30.6143ZM155.84 33.3777L155.853 26.7169H156.661L163.074 19.1176H169.448L160.832 29.1805H159.516L155.84 33.3777ZM150.809 39.1392V12.4437H156.361V39.1392H150.809ZM163.322 39.1392L157.43 30.4188L161.132 26.4953L169.826 39.1392H163.322ZM177.882 39.5172C176.605 39.5172 175.466 39.2956 174.467 38.8524C173.468 38.4005 172.677 37.7357 172.094 36.8581C171.521 35.9717 171.234 34.8681 171.234 33.5472C171.234 32.4349 171.438 31.5007 171.847 30.7447C172.255 29.9887 172.811 29.3804 173.515 28.9198C174.219 28.4592 175.019 28.1116 175.914 27.877C176.817 27.6424 177.765 27.4773 178.755 27.3817C179.92 27.26 180.858 27.1471 181.571 27.0428C182.283 26.9298 182.8 26.7647 183.122 26.5475C183.444 26.3302 183.604 26.0087 183.604 25.5829V25.5047C183.604 24.6791 183.344 24.0404 182.822 23.5885C182.31 23.1367 181.58 22.9107 180.632 22.9107C179.633 22.9107 178.838 23.1323 178.247 23.5755C177.656 24.01 177.265 24.5575 177.074 25.2179L171.938 24.8008C172.199 23.5842 172.711 22.5327 173.476 21.6463C174.241 20.7513 175.227 20.0648 176.435 19.5868C177.652 19.1002 179.059 18.8569 180.658 18.8569C181.771 18.8569 182.835 18.9872 183.852 19.2479C184.877 19.5086 185.785 19.9127 186.576 20.4602C187.376 21.0076 188.006 21.7115 188.466 22.5718C188.927 23.4234 189.157 24.4445 189.157 25.635V39.1392H183.891V36.3627H183.735C183.413 36.9884 182.983 37.5402 182.444 38.0182C181.905 38.4874 181.258 38.8567 180.502 39.1261C179.746 39.3868 178.873 39.5172 177.882 39.5172ZM179.472 35.6849C180.289 35.6849 181.01 35.5242 181.636 35.2026C182.262 34.8724 182.753 34.4292 183.109 33.8731C183.465 33.3169 183.643 32.6869 183.643 31.983V29.8583C183.47 29.9713 183.231 30.0756 182.926 30.1712C182.631 30.2581 182.296 30.3406 181.923 30.4188C181.549 30.4883 181.175 30.5535 180.802 30.6143C180.428 30.6665 180.089 30.7143 179.785 30.7577C179.133 30.8533 178.564 31.0054 178.078 31.2139C177.591 31.4225 177.213 31.7049 176.943 32.0612C176.674 32.4088 176.539 32.8433 176.539 33.3647C176.539 34.1207 176.813 34.6986 177.361 35.0983C177.917 35.4894 178.621 35.6849 179.472 35.6849Z" fill="white"/>
<path d="M8.64915 76.6415C8.64915 76.0165 8.44271 75.543 8.02983 75.221C7.61695 74.8953 7.05824 74.7324 6.35369 74.7324C5.83854 74.7324 5.37453 74.8157 4.96165 74.9824C4.54877 75.149 4.21165 75.3782 3.95028 75.6699C3.68892 75.9615 3.52794 76.293 3.46733 76.6642C3.41809 76.9748 3.45028 77.2418 3.56392 77.4653C3.67756 77.685 3.83854 77.8687 4.04688 78.0165C4.259 78.1604 4.48627 78.2797 4.72869 78.3744C4.97112 78.4653 5.1946 78.5392 5.39915 78.596L6.53551 78.9142C6.8196 78.9937 7.13589 79.1036 7.48438 79.2437C7.83286 79.3839 8.15862 79.5752 8.46165 79.8176C8.76468 80.0562 8.99574 80.3631 9.15483 80.7381C9.31771 81.1131 9.35369 81.5733 9.26278 82.1187C9.15672 82.7475 8.89725 83.3157 8.48438 83.8233C8.07528 84.3309 7.53362 84.7343 6.85938 85.0335C6.18892 85.3328 5.40672 85.4824 4.51278 85.4824C3.67945 85.4824 2.97869 85.3479 2.41051 85.079C1.84612 84.81 1.42945 84.435 1.16051 83.954C0.89536 83.4729 0.793087 82.9142 0.853693 82.2778H2.30824C2.27036 82.7172 2.35748 83.0809 2.5696 83.3687C2.78172 83.6528 3.07718 83.865 3.45597 84.0051C3.83475 84.1415 4.25521 84.2097 4.71733 84.2097C5.25521 84.2097 5.75142 84.1225 6.20597 83.9483C6.6643 83.7703 7.04309 83.524 7.34233 83.2097C7.64536 82.8915 7.83097 82.5203 7.89915 82.096C7.96733 81.7097 7.9143 81.3953 7.74006 81.1528C7.56581 80.9104 7.31392 80.7134 6.98438 80.5619C6.65483 80.4104 6.29309 80.2778 5.89915 80.1642L4.53551 79.7551C3.67188 79.4937 3.01468 79.1206 2.56392 78.6358C2.11695 78.1509 1.95597 77.5165 2.08097 76.7324C2.1946 76.0809 2.46922 75.5127 2.90483 75.0278C3.34044 74.5392 3.88021 74.1604 4.52415 73.8915C5.16809 73.6187 5.86127 73.4824 6.60369 73.4824C7.35369 73.4824 7.99574 73.6187 8.52983 73.8915C9.06392 74.1604 9.46165 74.5335 9.72301 75.0108C9.98438 75.4843 10.081 76.0278 10.0128 76.6415H8.64915ZM10.875 85.2778L12.3295 76.5506H13.625L13.3977 77.9142H13.5114C13.7727 77.4483 14.1269 77.0865 14.5739 76.829C15.0246 76.5676 15.5341 76.4369 16.1023 76.4369C16.6705 76.4369 17.1269 76.5676 17.4716 76.829C17.8163 77.0865 18.0568 77.4483 18.1932 77.9142H18.2841C18.5795 77.4596 18.9735 77.0998 19.4659 76.8347C19.9621 76.5695 20.5227 76.4369 21.1477 76.4369C21.9205 76.4369 22.5152 76.6812 22.9318 77.1699C23.3523 77.6585 23.4773 78.4142 23.3068 79.4369L22.3295 85.2778H20.9886L21.9659 79.4369C22.0682 78.7892 21.9659 78.329 21.6591 78.0562C21.3561 77.7797 20.9659 77.6415 20.4886 77.6415C19.875 77.6415 19.3693 77.8252 18.9716 78.1926C18.5739 78.56 18.3295 79.0278 18.2386 79.596L17.2841 85.2778H15.9205L16.9205 79.3006C17 78.8006 16.9053 78.399 16.6364 78.096C16.3674 77.793 15.9773 77.6415 15.4659 77.6415C15.1174 77.6415 14.7765 77.7362 14.4432 77.9256C14.1098 78.1112 13.8239 78.3687 13.5852 78.6983C13.3466 79.024 13.1932 79.399 13.125 79.8233L12.2159 85.2778H10.875ZM27.3267 85.4824C26.7737 85.4824 26.2888 85.3782 25.8722 85.1699C25.4555 84.9578 25.1468 84.6528 24.946 84.2551C24.7453 83.8536 24.6903 83.3687 24.7812 82.8006C24.8684 82.3006 25.0369 81.8953 25.2869 81.5847C25.5369 81.2703 25.84 81.024 26.196 80.846C26.5559 80.6642 26.9422 80.5297 27.3551 80.4426C27.7718 80.3517 28.1866 80.2816 28.5994 80.2324C29.1373 80.1642 29.5748 80.1112 29.9119 80.0733C30.2491 80.0354 30.5028 79.9729 30.6733 79.8858C30.8438 79.7987 30.9479 79.649 30.9858 79.4369V79.3915C31.0767 78.8347 31.0028 78.4009 30.7642 78.0903C30.5256 77.7759 30.0994 77.6187 29.4858 77.6187C28.8494 77.6187 28.3172 77.7589 27.8892 78.0392C27.4612 78.3195 27.1449 78.6187 26.9403 78.9369L25.7585 78.4824C26.0691 77.9521 26.4403 77.5392 26.8722 77.2437C27.304 76.9445 27.7566 76.7362 28.2301 76.6187C28.7036 76.4975 29.16 76.4369 29.5994 76.4369C29.8797 76.4369 30.196 76.471 30.5483 76.5392C30.9006 76.6036 31.2301 76.7381 31.5369 76.9426C31.8475 77.1472 32.0805 77.4559 32.2358 77.8687C32.3949 78.2816 32.4176 78.8347 32.304 79.5278L31.3494 85.2778H30.0085L30.2131 84.096H30.1449C30.0237 84.2854 29.8381 84.4881 29.5881 84.704C29.3419 84.9199 29.0294 85.1036 28.6506 85.2551C28.2756 85.4066 27.8343 85.4824 27.3267 85.4824ZM27.7131 84.2778C28.2434 84.2778 28.7074 84.1737 29.1051 83.9653C29.5066 83.757 29.8286 83.4881 30.071 83.1585C30.3172 82.829 30.4706 82.4824 30.5312 82.1187L30.7358 80.8915C30.6676 80.9597 30.5331 81.0222 30.3324 81.079C30.1316 81.132 29.9044 81.1793 29.6506 81.221C29.4006 81.2589 29.1563 81.293 28.9176 81.3233C28.6828 81.3498 28.4934 81.3725 28.3494 81.3915C27.9934 81.4369 27.6544 81.5108 27.3324 81.6131C27.0142 81.7115 26.7453 81.8612 26.5256 82.0619C26.3097 82.2589 26.1752 82.5278 26.1222 82.8687C26.0426 83.3347 26.1544 83.6869 26.4574 83.9256C26.7604 84.1604 27.179 84.2778 27.7131 84.2778ZM33.7969 85.2778L35.2514 76.5506H36.5469L36.3196 77.8687H36.4105C36.6378 77.4369 36.9844 77.0865 37.4503 76.8176C37.9162 76.5487 38.4105 76.4142 38.9332 76.4142C39.0355 76.4142 39.1586 76.4161 39.3026 76.4199C39.4465 76.4199 39.5582 76.4256 39.6378 76.4369L39.4105 77.8006C39.3651 77.7892 39.2628 77.7721 39.1037 77.7494C38.9446 77.7229 38.7741 77.7097 38.5923 77.7097C38.1681 77.7097 37.776 77.7987 37.4162 77.9767C37.0563 78.1509 36.7552 78.3934 36.5128 78.704C36.2704 79.0108 36.1151 79.3612 36.0469 79.7551L35.1378 85.2778H33.7969ZM45.5781 76.5506L45.3963 77.6869H40.8736L41.0554 76.5506H45.5781ZM42.7145 74.4597H44.0554L42.669 82.7778C42.6084 83.1566 42.6179 83.4407 42.6974 83.6301C42.7808 83.8157 42.9058 83.9407 43.0724 84.0051C43.2429 84.0657 43.4266 84.096 43.6236 84.096C43.7713 84.096 43.8925 84.0884 43.9872 84.0733C44.0819 84.0543 44.1577 84.0392 44.2145 84.0278L44.3054 85.2324C44.2031 85.2665 44.0649 85.3006 43.8906 85.3347C43.7202 85.3725 43.5099 85.3915 43.2599 85.3915C42.8812 85.3915 42.5251 85.31 42.1918 85.1472C41.8584 84.9843 41.6027 84.7362 41.4247 84.4028C41.2467 84.0695 41.1993 83.649 41.2827 83.1415L42.7145 74.4597ZM49.6832 85.4597C48.8461 85.4597 48.1548 85.274 47.6094 84.9028C47.0639 84.5278 46.6832 84.0051 46.4673 83.3347C46.2514 82.6604 46.2173 81.8763 46.3651 80.9824C46.5128 80.0884 46.8063 79.3006 47.2457 78.6187C47.6851 77.9331 48.2325 77.399 48.8878 77.0165C49.5431 76.6301 50.2628 76.4369 51.0469 76.4369C51.5014 76.4369 51.9389 76.5127 52.3594 76.6642C52.7798 76.8157 53.1435 77.0619 53.4503 77.4028C53.7571 77.74 53.9711 78.1869 54.0923 78.7437C54.2135 79.3006 54.206 79.9862 54.0696 80.8006L53.9787 81.3687H47.2514L47.4332 80.2097H52.7969C52.884 79.7172 52.8613 79.2778 52.7287 78.8915C52.5999 78.5051 52.3745 78.2002 52.0526 77.9767C51.7344 77.7532 51.331 77.6415 50.8423 77.6415C50.3385 77.6415 49.8688 77.7778 49.4332 78.0506C48.9976 78.3195 48.634 78.6604 48.3423 79.0733C48.0507 79.4824 47.8688 79.899 47.7969 80.3233L47.6378 81.3233C47.5241 82.0468 47.5412 82.6225 47.6889 83.0506C47.8404 83.4786 48.1037 83.7873 48.4787 83.9767C48.8537 84.1623 49.3234 84.2551 49.8878 84.2551C50.2476 84.2551 50.5791 84.2059 50.8821 84.1074C51.1851 84.0051 51.456 83.8536 51.6946 83.6528C51.9332 83.4483 52.134 83.1945 52.2969 82.8915L53.5241 83.2551C53.3158 83.6945 53.0223 84.0809 52.6435 84.4142C52.2685 84.7437 51.8291 85.0013 51.3253 85.1869C50.8253 85.3687 50.2779 85.4597 49.6832 85.4597ZM55.3906 85.2778L56.8452 76.5506H58.1406L57.9134 77.8687H58.0043C58.2315 77.4369 58.5781 77.0865 59.044 76.8176C59.5099 76.5487 60.0043 76.4142 60.527 76.4142C60.6293 76.4142 60.7524 76.4161 60.8963 76.4199C61.0402 76.4199 61.152 76.4256 61.2315 76.4369L61.0043 77.8006C60.9588 77.7892 60.8565 77.7721 60.6974 77.7494C60.5384 77.7229 60.3679 77.7097 60.1861 77.7097C59.7618 77.7097 59.3698 77.7987 59.0099 77.9767C58.6501 78.1509 58.349 78.3934 58.1065 78.704C57.8641 79.0108 57.7088 79.3612 57.6406 79.7551L56.7315 85.2778H55.3906ZM67.1477 74.8915L67.3523 73.6415H76.0795L75.875 74.8915H72.2159L70.4886 85.2778H69.0795L70.8068 74.8915H67.1477ZM78.4773 85.4597C77.6742 85.4597 77.0019 85.2684 76.4602 84.8858C75.9186 84.5032 75.536 83.9672 75.3125 83.2778C75.0928 82.5884 75.0568 81.7854 75.2045 80.8687C75.3485 79.9748 75.6345 79.1964 76.0625 78.5335C76.4943 77.8668 77.0303 77.3517 77.6705 76.9881C78.3144 76.6206 79.0227 76.4369 79.7955 76.4369C80.5985 76.4369 81.2689 76.6301 81.8068 77.0165C82.3485 77.399 82.7311 77.9369 82.9545 78.6301C83.178 79.3195 83.2159 80.1263 83.0682 81.0506C82.9242 81.9369 82.6345 82.7115 82.1989 83.3744C81.767 84.0335 81.2311 84.5468 80.5909 84.9142C79.9545 85.2778 79.25 85.4597 78.4773 85.4597ZM78.5 84.2551C79.1136 84.2551 79.6458 84.0979 80.0966 83.7835C80.5511 83.4691 80.9186 83.0543 81.1989 82.5392C81.483 82.024 81.6742 81.4672 81.7727 80.8687C81.8636 80.3006 81.8598 79.7721 81.7614 79.2835C81.6629 78.7911 81.4527 78.3953 81.1307 78.096C80.8087 77.793 80.3561 77.6415 79.7727 77.6415C79.1591 77.6415 78.6231 77.8006 78.1648 78.1187C77.7102 78.4369 77.3428 78.8555 77.0625 79.3744C76.7822 79.8934 76.5947 80.4521 76.5 81.0506C76.4091 81.6187 76.411 82.1472 76.5057 82.6358C76.6042 83.1206 76.8144 83.5127 77.1364 83.8119C77.4621 84.1074 77.9167 84.2551 78.5 84.2551ZM88.0241 85.4597C87.2211 85.4597 86.5488 85.2684 86.0071 84.8858C85.4654 84.5032 85.0829 83.9672 84.8594 83.2778C84.6397 82.5884 84.6037 81.7854 84.7514 80.8687C84.8954 79.9748 85.1813 79.1964 85.6094 78.5335C86.0412 77.8668 86.5772 77.3517 87.2173 76.9881C87.8613 76.6206 88.5696 76.4369 89.3423 76.4369C90.1454 76.4369 90.8158 76.6301 91.3537 77.0165C91.8954 77.399 92.2779 77.9369 92.5014 78.6301C92.7249 79.3195 92.7628 80.1263 92.6151 81.0506C92.4711 81.9369 92.1813 82.7115 91.7457 83.3744C91.3139 84.0335 90.7779 84.5468 90.1378 84.9142C89.5014 85.2778 88.7969 85.4597 88.0241 85.4597ZM88.0469 84.2551C88.6605 84.2551 89.1927 84.0979 89.6435 83.7835C90.098 83.4691 90.4654 83.0543 90.7457 82.5392C91.0298 82.024 91.2211 81.4672 91.3196 80.8687C91.4105 80.3006 91.4067 79.7721 91.3082 79.2835C91.2098 78.7911 90.9995 78.3953 90.6776 78.096C90.3556 77.793 89.9029 77.6415 89.3196 77.6415C88.706 77.6415 88.17 77.8006 87.7116 78.1187C87.2571 78.4369 86.8897 78.8555 86.6094 79.3744C86.3291 79.8934 86.1416 80.4521 86.0469 81.0506C85.956 81.6187 85.9579 82.1472 86.0526 82.6358C86.151 83.1206 86.3613 83.5127 86.6832 83.8119C87.009 84.1074 87.4635 84.2551 88.0469 84.2551ZM97.2415 73.6415L95.3097 85.2778H93.9688L95.9006 73.6415H97.2415ZM105.084 78.5051L103.811 78.846C103.766 78.6415 103.686 78.4445 103.572 78.2551C103.463 78.0619 103.292 77.9047 103.061 77.7835C102.834 77.6585 102.523 77.596 102.129 77.596C101.595 77.596 101.131 77.7191 100.737 77.9653C100.343 78.2078 100.118 78.5165 100.061 78.8915C100.004 79.221 100.08 79.4843 100.288 79.6812C100.497 79.8782 100.845 80.0392 101.334 80.1642L102.584 80.4824C103.334 80.6756 103.868 80.9653 104.186 81.3517C104.508 81.7343 104.618 82.2324 104.516 82.846C104.432 83.346 104.214 83.793 103.862 84.1869C103.51 84.5809 103.059 84.8915 102.51 85.1187C101.961 85.346 101.349 85.4597 100.675 85.4597C99.777 85.4597 99.0687 85.2665 98.5497 84.8801C98.0308 84.49 97.7543 83.9256 97.7202 83.1869L99.0611 82.8687C99.0952 83.3347 99.2618 83.6869 99.5611 83.9256C99.8641 84.1604 100.288 84.2778 100.834 84.2778C101.459 84.2778 101.98 84.1453 102.396 83.8801C102.813 83.6112 103.05 83.2892 103.107 82.9142C103.163 82.6074 103.103 82.3517 102.925 82.1472C102.75 81.9426 102.447 81.7892 102.016 81.6869L100.629 81.346C99.8565 81.1528 99.3149 80.8574 99.0043 80.4597C98.6974 80.0619 98.5952 79.5619 98.6974 78.9597C98.7808 78.4672 98.9929 78.0316 99.3338 77.6528C99.6785 77.274 100.11 76.9767 100.629 76.7608C101.152 76.5449 101.72 76.4369 102.334 76.4369C103.197 76.4369 103.843 76.6263 104.271 77.0051C104.699 77.3801 104.97 77.8801 105.084 78.5051ZM115.966 76.5506L115.784 77.6869H111.08L111.261 76.5506H115.966ZM111.216 85.2778L112.875 75.346C112.951 74.846 113.133 74.4293 113.42 74.096C113.712 73.7627 114.059 73.5127 114.46 73.346C114.866 73.1793 115.277 73.096 115.693 73.096C116.023 73.096 116.286 73.1225 116.483 73.1756C116.684 73.2286 116.83 73.2778 116.92 73.3233L116.352 74.4824C116.284 74.4596 116.193 74.4312 116.08 74.3972C115.97 74.3631 115.818 74.346 115.625 74.346C115.182 74.346 114.845 74.4578 114.614 74.6812C114.383 74.9047 114.227 75.2324 114.148 75.6642L112.557 85.2778H111.216ZM119.634 85.4597C118.83 85.4597 118.158 85.2684 117.616 84.8858C117.075 84.5032 116.692 83.9672 116.469 83.2778C116.249 82.5884 116.213 81.7854 116.361 80.8687C116.505 79.9748 116.791 79.1964 117.219 78.5335C117.651 77.8668 118.187 77.3517 118.827 76.9881C119.471 76.6206 120.179 76.4369 120.952 76.4369C121.755 76.4369 122.425 76.6301 122.963 77.0165C123.505 77.399 123.887 77.9369 124.111 78.6301C124.334 79.3195 124.372 80.1263 124.224 81.0506C124.08 81.9369 123.791 82.7115 123.355 83.3744C122.923 84.0335 122.387 84.5468 121.747 84.9142C121.111 85.2778 120.406 85.4597 119.634 85.4597ZM119.656 84.2551C120.27 84.2551 120.802 84.0979 121.253 83.7835C121.707 83.4691 122.075 83.0543 122.355 82.5392C122.639 82.024 122.83 81.4672 122.929 80.8687C123.02 80.3006 123.016 79.7721 122.918 79.2835C122.819 78.7911 122.609 78.3953 122.287 78.096C121.965 77.793 121.512 77.6415 120.929 77.6415C120.315 77.6415 119.779 77.8006 119.321 78.1187C118.866 78.4369 118.499 78.8555 118.219 79.3744C117.938 79.8934 117.751 80.4521 117.656 81.0506C117.565 81.6187 117.567 82.1472 117.662 82.6358C117.76 83.1206 117.971 83.5127 118.293 83.8119C118.618 84.1074 119.073 84.2551 119.656 84.2551ZM125.578 85.2778L127.033 76.5506H128.328L128.101 77.8687H128.192C128.419 77.4369 128.766 77.0865 129.232 76.8176C129.697 76.5487 130.192 76.4142 130.714 76.4142C130.817 76.4142 130.94 76.4161 131.084 76.4199C131.228 76.4199 131.339 76.4256 131.419 76.4369L131.192 77.8006C131.146 77.7892 131.044 77.7721 130.885 77.7494C130.726 77.7229 130.555 77.7097 130.374 77.7097C129.949 77.7097 129.557 77.7987 129.197 77.9767C128.838 78.1509 128.536 78.3934 128.294 78.704C128.052 79.0108 127.896 79.3612 127.828 79.7551L126.919 85.2778H125.578ZM144.04 76.6415C144.04 76.0165 143.833 75.543 143.42 75.221C143.008 74.8953 142.449 74.7324 141.744 74.7324C141.229 74.7324 140.765 74.8157 140.352 74.9824C139.939 75.149 139.602 75.3782 139.341 75.6699C139.08 75.9615 138.919 76.293 138.858 76.6642C138.809 76.9748 138.841 77.2418 138.955 77.4653C139.068 77.685 139.229 77.8687 139.438 78.0165C139.65 78.1604 139.877 78.2797 140.119 78.3744C140.362 78.4653 140.585 78.5392 140.79 78.596L141.926 78.9142C142.21 78.9937 142.527 79.1036 142.875 79.2437C143.223 79.3839 143.549 79.5752 143.852 79.8176C144.155 80.0562 144.386 80.3631 144.545 80.7381C144.708 81.1131 144.744 81.5733 144.653 82.1187C144.547 82.7475 144.288 83.3157 143.875 83.8233C143.466 84.3309 142.924 84.7343 142.25 85.0335C141.58 85.3328 140.797 85.4824 139.903 85.4824C139.07 85.4824 138.369 85.3479 137.801 85.079C137.237 84.81 136.82 84.435 136.551 83.954C136.286 83.4729 136.184 82.9142 136.244 82.2778H137.699C137.661 82.7172 137.748 83.0809 137.96 83.3687C138.172 83.6528 138.468 83.865 138.847 84.0051C139.225 84.1415 139.646 84.2097 140.108 84.2097C140.646 84.2097 141.142 84.1225 141.597 83.9483C142.055 83.7703 142.434 83.524 142.733 83.2097C143.036 82.8915 143.222 82.5203 143.29 82.096C143.358 81.7097 143.305 81.3953 143.131 81.1528C142.956 80.9104 142.705 80.7134 142.375 80.5619C142.045 80.4104 141.684 80.2778 141.29 80.1642L139.926 79.7551C139.063 79.4937 138.405 79.1206 137.955 78.6358C137.508 78.1509 137.347 77.5165 137.472 76.7324C137.585 76.0809 137.86 75.5127 138.295 75.0278C138.731 74.5392 139.271 74.1604 139.915 73.8915C140.559 73.6187 141.252 73.4824 141.994 73.4824C142.744 73.4824 143.386 73.6187 143.92 73.8915C144.455 74.1604 144.852 74.5335 145.114 75.0108C145.375 75.4843 145.472 76.0278 145.403 76.6415H144.04ZM146.266 85.2778L147.72 76.5506H149.016L148.788 77.9142H148.902C149.163 77.4483 149.518 77.0865 149.964 76.829C150.415 76.5676 150.925 76.4369 151.493 76.4369C152.061 76.4369 152.518 76.5676 152.862 76.829C153.207 77.0865 153.447 77.4483 153.584 77.9142H153.675C153.97 77.4596 154.364 77.0998 154.857 76.8347C155.353 76.5695 155.913 76.4369 156.538 76.4369C157.311 76.4369 157.906 76.6812 158.322 77.1699C158.743 77.6585 158.868 78.4142 158.697 79.4369L157.72 85.2778H156.379L157.357 79.4369C157.459 78.7892 157.357 78.329 157.05 78.0562C156.747 77.7797 156.357 77.6415 155.879 77.6415C155.266 77.6415 154.76 77.8252 154.362 78.1926C153.964 78.56 153.72 79.0278 153.629 79.596L152.675 85.2778H151.311L152.311 79.3006C152.391 78.8006 152.296 78.399 152.027 78.096C151.758 77.793 151.368 77.6415 150.857 77.6415C150.508 77.6415 150.167 77.7362 149.834 77.9256C149.5 78.1112 149.214 78.3687 148.976 78.6983C148.737 79.024 148.584 79.399 148.516 79.8233L147.607 85.2778H146.266ZM162.717 85.4824C162.164 85.4824 161.679 85.3782 161.263 85.1699C160.846 84.9578 160.537 84.6528 160.337 84.2551C160.136 83.8536 160.081 83.3687 160.172 82.8006C160.259 82.3006 160.428 81.8953 160.678 81.5847C160.928 81.2703 161.231 81.024 161.587 80.846C161.946 80.6642 162.333 80.5297 162.746 80.4426C163.162 80.3517 163.577 80.2816 163.99 80.2324C164.528 80.1642 164.965 80.1112 165.303 80.0733C165.64 80.0354 165.893 79.9729 166.064 79.8858C166.234 79.7987 166.339 79.649 166.376 79.4369V79.3915C166.467 78.8347 166.393 78.4009 166.155 78.0903C165.916 77.7759 165.49 77.6187 164.876 77.6187C164.24 77.6187 163.708 77.7589 163.28 78.0392C162.852 78.3195 162.536 78.6187 162.331 78.9369L161.149 78.4824C161.46 77.9521 161.831 77.5392 162.263 77.2437C162.695 76.9445 163.147 76.7362 163.621 76.6187C164.094 76.4975 164.551 76.4369 164.99 76.4369C165.27 76.4369 165.587 76.471 165.939 76.5392C166.291 76.6036 166.621 76.7381 166.928 76.9426C167.238 77.1472 167.471 77.4559 167.626 77.8687C167.786 78.2816 167.808 78.8347 167.695 79.5278L166.74 85.2778H165.399L165.604 84.096H165.536C165.414 84.2854 165.229 84.4881 164.979 84.704C164.732 84.9199 164.42 85.1036 164.041 85.2551C163.666 85.4066 163.225 85.4824 162.717 85.4824ZM163.104 84.2778C163.634 84.2778 164.098 84.1737 164.496 83.9653C164.897 83.757 165.219 83.4881 165.462 83.1585C165.708 82.829 165.861 82.4824 165.922 82.1187L166.126 80.8915C166.058 80.9597 165.924 81.0222 165.723 81.079C165.522 81.132 165.295 81.1793 165.041 81.221C164.791 81.2589 164.547 81.293 164.308 81.3233C164.073 81.3498 163.884 81.3725 163.74 81.3915C163.384 81.4369 163.045 81.5108 162.723 81.6131C162.405 81.7115 162.136 81.8612 161.916 82.0619C161.7 82.2589 161.566 82.5278 161.513 82.8687C161.433 83.3347 161.545 83.6869 161.848 83.9256C162.151 84.1604 162.57 84.2778 163.104 84.2778ZM169.188 85.2778L170.642 76.5506H171.938L171.71 77.8687H171.801C172.028 77.4369 172.375 77.0865 172.841 76.8176C173.307 76.5487 173.801 76.4142 174.324 76.4142C174.426 76.4142 174.549 76.4161 174.693 76.4199C174.837 76.4199 174.949 76.4256 175.028 76.4369L174.801 77.8006C174.756 77.7892 174.653 77.7721 174.494 77.7494C174.335 77.7229 174.165 77.7097 173.983 77.7097C173.559 77.7097 173.167 77.7987 172.807 77.9767C172.447 78.1509 172.146 78.3934 171.903 78.704C171.661 79.0108 171.506 79.3612 171.438 79.7551L170.528 85.2778H169.188ZM180.969 76.5506L180.787 77.6869H176.264L176.446 76.5506H180.969ZM178.105 74.4597H179.446L178.06 82.7778C177.999 83.1566 178.009 83.4407 178.088 83.6301C178.171 83.8157 178.296 83.9407 178.463 84.0051C178.634 84.0657 178.817 84.096 179.014 84.096C179.162 84.096 179.283 84.0884 179.378 84.0733C179.473 84.0543 179.548 84.0392 179.605 84.0278L179.696 85.2324C179.594 85.2665 179.455 85.3006 179.281 85.3347C179.111 85.3725 178.901 85.3915 178.651 85.3915C178.272 85.3915 177.916 85.31 177.582 85.1472C177.249 84.9843 176.993 84.7362 176.815 84.4028C176.637 84.0695 176.59 83.649 176.673 83.1415L178.105 74.4597ZM185.074 85.4597C184.237 85.4597 183.545 85.274 183 84.9028C182.455 84.5278 182.074 84.0051 181.858 83.3347C181.642 82.6604 181.608 81.8763 181.756 80.9824C181.903 80.0884 182.197 79.3006 182.636 78.6187C183.076 77.9331 183.623 77.399 184.278 77.0165C184.934 76.6301 185.653 76.4369 186.438 76.4369C186.892 76.4369 187.33 76.5127 187.75 76.6642C188.17 76.8157 188.534 77.0619 188.841 77.4028C189.148 77.74 189.362 78.1869 189.483 78.7437C189.604 79.3006 189.597 79.9862 189.46 80.8006L189.369 81.3687H182.642L182.824 80.2097H188.188C188.275 79.7172 188.252 79.2778 188.119 78.8915C187.991 78.5051 187.765 78.2002 187.443 77.9767C187.125 77.7532 186.722 77.6415 186.233 77.6415C185.729 77.6415 185.259 77.7778 184.824 78.0506C184.388 78.3195 184.025 78.6604 183.733 79.0733C183.441 79.4824 183.259 79.899 183.188 80.3233L183.028 81.3233C182.915 82.0468 182.932 82.6225 183.08 83.0506C183.231 83.4786 183.494 83.7873 183.869 83.9767C184.244 84.1623 184.714 84.2551 185.278 84.2551C185.638 84.2551 185.97 84.2059 186.273 84.1074C186.576 84.0051 186.847 83.8536 187.085 83.6528C187.324 83.4483 187.525 83.1945 187.688 82.8915L188.915 83.2551C188.706 83.6945 188.413 84.0809 188.034 84.4142C187.659 84.7437 187.22 85.0013 186.716 85.1869C186.216 85.3687 185.669 85.4597 185.074 85.4597ZM190.781 85.2778L192.236 76.5506H193.531L193.304 77.8687H193.395C193.622 77.4369 193.969 77.0865 194.435 76.8176C194.901 76.5487 195.395 76.4142 195.918 76.4142C196.02 76.4142 196.143 76.4161 196.287 76.4199C196.431 76.4199 196.543 76.4256 196.622 76.4369L196.395 77.8006C196.349 77.7892 196.247 77.7721 196.088 77.7494C195.929 77.7229 195.759 77.7097 195.577 77.7097C195.152 77.7097 194.76 77.7987 194.401 77.9767C194.041 78.1509 193.74 78.3934 193.497 78.704C193.255 79.0108 193.099 79.3612 193.031 79.7551L192.122 85.2778H190.781ZM209.243 76.6415C209.243 76.0165 209.036 75.543 208.624 75.221C208.211 74.8953 207.652 74.7324 206.947 74.7324C206.432 74.7324 205.968 74.8157 205.555 74.9824C205.143 75.149 204.805 75.3782 204.544 75.6699C204.283 75.9615 204.122 76.293 204.061 76.6642C204.012 76.9748 204.044 77.2418 204.158 77.4653C204.271 77.685 204.432 77.8687 204.641 78.0165C204.853 78.1604 205.08 78.2797 205.322 78.3744C205.565 78.4653 205.788 78.5392 205.993 78.596L207.129 78.9142C207.413 78.9937 207.73 79.1036 208.078 79.2437C208.427 79.3839 208.752 79.5752 209.055 79.8176C209.358 80.0562 209.589 80.3631 209.749 80.7381C209.911 81.1131 209.947 81.5733 209.857 82.1187C209.75 82.7475 209.491 83.3157 209.078 83.8233C208.669 84.3309 208.127 84.7343 207.453 85.0335C206.783 85.3328 206 85.4824 205.107 85.4824C204.273 85.4824 203.572 85.3479 203.004 85.079C202.44 84.81 202.023 84.435 201.754 83.954C201.489 83.4729 201.387 82.9142 201.447 82.2778H202.902C202.864 82.7172 202.951 83.0809 203.163 83.3687C203.375 83.6528 203.671 83.865 204.05 84.0051C204.429 84.1415 204.849 84.2097 205.311 84.2097C205.849 84.2097 206.345 84.1225 206.8 83.9483C207.258 83.7703 207.637 83.524 207.936 83.2097C208.239 82.8915 208.425 82.5203 208.493 82.096C208.561 81.7097 208.508 81.3953 208.334 81.1528C208.16 80.9104 207.908 80.7134 207.578 80.5619C207.249 80.4104 206.887 80.2778 206.493 80.1642L205.129 79.7551C204.266 79.4937 203.608 79.1206 203.158 78.6358C202.711 78.1509 202.55 77.5165 202.675 76.7324C202.788 76.0809 203.063 75.5127 203.499 75.0278C203.934 74.5392 204.474 74.1604 205.118 73.8915C205.762 73.6187 206.455 73.4824 207.197 73.4824C207.947 73.4824 208.589 73.6187 209.124 73.8915C209.658 74.1604 210.055 74.5335 210.317 75.0108C210.578 75.4843 210.675 76.0278 210.607 76.6415H209.243ZM214.991 85.4597C214.17 85.4597 213.495 85.2665 212.969 84.8801C212.446 84.4937 212.082 83.9615 211.878 83.2835C211.673 82.6055 211.643 81.8309 211.787 80.9597C211.931 80.0733 212.223 79.2911 212.662 78.6131C213.101 77.9312 213.649 77.399 214.304 77.0165C214.959 76.6301 215.681 76.4369 216.469 76.4369C217.082 76.4369 217.616 76.5506 218.071 76.7778C218.526 77.0051 218.876 77.3233 219.122 77.7324C219.368 78.1415 219.484 78.6187 219.469 79.1642H218.128C218.09 78.7665 217.92 78.4142 217.616 78.1074C217.317 77.7968 216.874 77.6415 216.287 77.6415C215.764 77.6415 215.283 77.7778 214.844 78.0506C214.404 78.3195 214.035 78.7002 213.736 79.1926C213.437 79.6812 213.234 80.2551 213.128 80.9142C213.014 81.5884 213.024 82.1756 213.156 82.6756C213.289 83.1756 213.529 83.5638 213.878 83.8403C214.226 84.1168 214.666 84.2551 215.196 84.2551C215.545 84.2551 215.87 84.1945 216.173 84.0733C216.476 83.9521 216.745 83.7778 216.98 83.5506C217.215 83.3233 217.401 83.0506 217.537 82.7324H218.878C218.711 83.2475 218.444 83.7115 218.077 84.1244C217.709 84.5335 217.264 84.8593 216.741 85.1017C216.219 85.3403 215.635 85.4597 214.991 85.4597ZM222.611 80.0278L221.747 85.2778H220.406L222.338 73.6415H223.679L222.974 77.9142H223.088C223.361 77.4596 223.724 77.0998 224.179 76.8347C224.637 76.5695 225.213 76.4369 225.906 76.4369C226.497 76.4369 226.995 76.5562 227.401 76.7949C227.81 77.0297 228.098 77.3915 228.264 77.8801C228.435 78.365 228.459 78.9824 228.338 79.7324L227.406 85.2778H226.065L226.974 79.8233C227.088 79.1301 226.995 78.5941 226.696 78.2153C226.401 77.8328 225.94 77.6415 225.315 77.6415C224.876 77.6415 224.467 77.7343 224.088 77.9199C223.713 78.1055 223.395 78.3763 223.134 78.7324C222.876 79.0884 222.702 79.5203 222.611 80.0278ZM233.462 85.4597C232.659 85.4597 231.986 85.2684 231.445 84.8858C230.903 84.5032 230.52 83.9672 230.297 83.2778C230.077 82.5884 230.041 81.7854 230.189 80.8687C230.333 79.9748 230.619 79.1964 231.047 78.5335C231.479 77.8668 232.015 77.3517 232.655 76.9881C233.299 76.6206 234.007 76.4369 234.78 76.4369C235.583 76.4369 236.253 76.6301 236.791 77.0165C237.333 77.399 237.715 77.9369 237.939 78.6301C238.162 79.3195 238.2 80.1263 238.053 81.0506C237.909 81.9369 237.619 82.7115 237.183 83.3744C236.751 84.0335 236.215 84.5468 235.575 84.9142C234.939 85.2778 234.234 85.4597 233.462 85.4597ZM233.484 84.2551C234.098 84.2551 234.63 84.0979 235.081 83.7835C235.536 83.4691 235.903 83.0543 236.183 82.5392C236.467 82.024 236.659 81.4672 236.757 80.8687C236.848 80.3006 236.844 79.7721 236.746 79.2835C236.647 78.7911 236.437 78.3953 236.115 78.096C235.793 77.793 235.34 77.6415 234.757 77.6415C234.143 77.6415 233.607 77.8006 233.149 78.1187C232.695 78.4369 232.327 78.8555 232.047 79.3744C231.767 79.8934 231.579 80.4521 231.484 81.0506C231.393 81.6187 231.395 82.1472 231.49 82.6358C231.589 83.1206 231.799 83.5127 232.121 83.8119C232.446 84.1074 232.901 84.2551 233.484 84.2551ZM243.009 85.4597C242.205 85.4597 241.533 85.2684 240.991 84.8858C240.45 84.5032 240.067 83.9672 239.844 83.2778C239.624 82.5884 239.588 81.7854 239.736 80.8687C239.88 79.9748 240.166 79.1964 240.594 78.5335C241.026 77.8668 241.562 77.3517 242.202 76.9881C242.846 76.6206 243.554 76.4369 244.327 76.4369C245.13 76.4369 245.8 76.6301 246.338 77.0165C246.88 77.399 247.262 77.9369 247.486 78.6301C247.709 79.3195 247.747 80.1263 247.599 81.0506C247.455 81.9369 247.166 82.7115 246.73 83.3744C246.298 84.0335 245.762 84.5468 245.122 84.9142C244.486 85.2778 243.781 85.4597 243.009 85.4597ZM243.031 84.2551C243.645 84.2551 244.177 84.0979 244.628 83.7835C245.082 83.4691 245.45 83.0543 245.73 82.5392C246.014 82.024 246.205 81.4672 246.304 80.8687C246.395 80.3006 246.391 79.7721 246.293 79.2835C246.194 78.7911 245.984 78.3953 245.662 78.096C245.34 77.793 244.887 77.6415 244.304 77.6415C243.69 77.6415 243.154 77.8006 242.696 78.1187C242.241 78.4369 241.874 78.8555 241.594 79.3744C241.313 79.8934 241.126 80.4521 241.031 81.0506C240.94 81.6187 240.942 82.1472 241.037 82.6358C241.135 83.1206 241.346 83.5127 241.668 83.8119C241.993 84.1074 242.448 84.2551 243.031 84.2551ZM252.226 73.6415L250.294 85.2778H248.953L250.885 73.6415H252.226ZM260.068 78.5051L258.795 78.846C258.75 78.6415 258.67 78.4445 258.557 78.2551C258.447 78.0619 258.277 77.9047 258.045 77.7835C257.818 77.6585 257.508 77.596 257.114 77.596C256.58 77.596 256.116 77.7191 255.722 77.9653C255.328 78.2078 255.102 78.5165 255.045 78.8915C254.989 79.221 255.064 79.4843 255.273 79.6812C255.481 79.8782 255.83 80.0392 256.318 80.1642L257.568 80.4824C258.318 80.6756 258.852 80.9653 259.17 81.3517C259.492 81.7343 259.602 82.2324 259.5 82.846C259.417 83.346 259.199 83.793 258.847 84.1869C258.494 84.5809 258.044 84.8915 257.494 85.1187C256.945 85.346 256.333 85.4597 255.659 85.4597C254.761 85.4597 254.053 85.2665 253.534 84.8801C253.015 84.49 252.739 83.9256 252.705 83.1869L254.045 82.8687C254.08 83.3347 254.246 83.6869 254.545 83.9256C254.848 84.1604 255.273 84.2778 255.818 84.2778C256.443 84.2778 256.964 84.1453 257.381 83.8801C257.797 83.6112 258.034 83.2892 258.091 82.9142C258.148 82.6074 258.087 82.3517 257.909 82.1472C257.735 81.9426 257.432 81.7892 257 81.6869L255.614 81.346C254.841 81.1528 254.299 80.8574 253.989 80.4597C253.682 80.0619 253.58 79.5619 253.682 78.9597C253.765 78.4672 253.977 78.0316 254.318 77.6528C254.663 77.274 255.095 76.9767 255.614 76.7608C256.136 76.5449 256.705 76.4369 257.318 76.4369C258.182 76.4369 258.828 76.6263 259.256 77.0051C259.684 77.3801 259.955 77.8801 260.068 78.5051ZM262.246 85.3687C261.958 85.3687 261.717 85.2703 261.524 85.0733C261.331 84.8725 261.231 84.6301 261.223 84.346C261.219 84.0619 261.32 83.8252 261.524 83.6358C261.729 83.4426 261.969 83.346 262.246 83.346C262.526 83.346 262.768 83.4445 262.973 83.6415C263.178 83.8384 263.276 84.0733 263.268 84.346C263.265 84.5354 263.215 84.7078 263.121 84.8631C263.03 85.0184 262.907 85.1415 262.751 85.2324C262.6 85.3233 262.431 85.3687 262.246 85.3687ZM266.652 85.3687C266.364 85.3687 266.124 85.2703 265.93 85.0733C265.737 84.8725 265.637 84.6301 265.629 84.346C265.625 84.0619 265.726 83.8252 265.93 83.6358C266.135 83.4426 266.375 83.346 266.652 83.346C266.932 83.346 267.175 83.4445 267.379 83.6415C267.584 83.8384 267.682 84.0733 267.675 84.346C267.671 84.5354 267.622 84.7078 267.527 84.8631C267.436 85.0184 267.313 85.1415 267.158 85.2324C267.006 85.3233 266.838 85.3687 266.652 85.3687ZM271.058 85.3687C270.77 85.3687 270.53 85.2703 270.337 85.0733C270.143 84.8725 270.043 84.6301 270.036 84.346C270.032 84.0619 270.132 83.8252 270.337 83.6358C270.541 83.4426 270.782 83.346 271.058 83.346C271.339 83.346 271.581 83.4445 271.786 83.6415C271.99 83.8384 272.089 84.0733 272.081 84.346C272.077 84.5354 272.028 84.7078 271.933 84.8631C271.842 85.0184 271.719 85.1415 271.564 85.2324C271.412 85.3233 271.244 85.3687 271.058 85.3687Z" fill="#D0D3D9"/>
</svg>
