<svg width="39" height="40" viewBox="0 0 39 40" fill="none" xmlns="http://www.w3.org/2000/svg">
<rect width="38.5714" height="40" rx="3.50649" fill="#FFF8E6"/>
<path d="M20.4546 9.4806L22.4815 14.7507C22.8111 15.6077 22.976 16.0362 23.2322 16.3967C23.4594 16.7161 23.7385 16.9952 24.058 17.2224C24.4184 17.4787 24.8469 17.6435 25.7039 17.9731L30.974 20.0001L25.7039 22.027C24.8469 22.3567 24.4184 22.5215 24.058 22.7778C23.7385 23.0049 23.4594 23.284 23.2323 23.6035C22.976 23.9639 22.8111 24.3924 22.4815 25.2495L20.4546 30.5196L18.4276 25.2495C18.098 24.3924 17.9332 23.9639 17.6769 23.6035C17.4497 23.284 17.1706 23.0049 16.8512 22.7778C16.4907 22.5215 16.0622 22.3567 15.2052 22.027L9.93508 20.0001L15.2052 17.9731C16.0622 17.6435 16.4907 17.4787 16.8511 17.2224C17.1706 16.9952 17.4497 16.7161 17.6769 16.3967C17.9332 16.0362 18.098 15.6077 18.4276 14.7507L20.4546 9.4806Z" fill="#E8AA00"/>
<path d="M10.5195 31.6884V25.8442M10.5195 14.1559V8.31177M7.59741 11.2338H13.4416M7.59741 28.7663H13.4416M20.4546 9.4806L18.4276 14.7507C18.098 15.6077 17.9332 16.0362 17.6769 16.3967C17.4497 16.7161 17.1706 16.9952 16.8511 17.2224C16.4907 17.4787 16.0622 17.6435 15.2052 17.9731L9.93508 20.0001L15.2052 22.027C16.0622 22.3567 16.4907 22.5215 16.8512 22.7778C17.1706 23.0049 17.4497 23.284 17.6769 23.6035C17.9332 23.9639 18.098 24.3924 18.4276 25.2495L20.4546 30.5196L22.4815 25.2495C22.8111 24.3924 22.976 23.9639 23.2322 23.6035C23.4594 23.284 23.7385 23.0049 24.058 22.7778C24.4184 22.5215 24.8469 22.3567 25.7039 22.027L30.974 20.0001L25.7039 17.9731C24.8469 17.6435 24.4184 17.4787 24.058 17.2224C23.7385 16.9952 23.4594 16.7161 23.2322 16.3967C22.976 16.0362 22.8111 15.6077 22.4815 14.7507L20.4546 9.4806Z" stroke="#E8AA00" stroke-width="2.41071" stroke-linecap="round" stroke-linejoin="round"/>
</svg>
