<svg width="32" height="32" viewBox="0 0 32 32" fill="none" xmlns="http://www.w3.org/2000/svg">
<rect width="32" height="32" rx="16" fill="white"/>
<path d="M13 21L8 26M19 21L24 26M16 6V8M16 26V21M9.2 21H22.8C23.9201 21 24.4802 21 24.908 20.782C25.2843 20.5903 25.5903 20.2843 25.782 19.908C26 19.4802 26 18.9201 26 17.8V11.2C26 10.0799 26 9.51984 25.782 9.09202C25.5903 8.71569 25.2843 8.40973 24.908 8.21799C24.4802 8 23.9201 8 22.8 8H9.2C8.07989 8 7.51984 8 7.09202 8.21799C6.71569 8.40973 6.40973 8.71569 6.21799 9.09202C6 9.51984 6 10.0799 6 11.2V17.8C6 18.9201 6 19.4802 6.21799 19.908C6.40973 20.2843 6.71569 20.5903 7.09202 20.782C7.51984 21 8.0799 21 9.2 21Z" stroke="#DDCF00" stroke-width="2" stroke-linecap="round" stroke-linejoin="round"/>
</svg>
