<svg width="184" height="53" viewBox="0 0 184 53" fill="none" xmlns="http://www.w3.org/2000/svg">
<path d="M7.04374 11.6942C9.32625 10.6442 32.4764 0 32.9597 0C33.443 0 56.9737 10.49 59.2959 11.5258C59.4181 11.5803 59.4799 11.694 59.4799 11.8278V12.4922C59.4799 12.6246 59.4193 12.7373 59.299 12.7926C57.0225 13.8387 34.0108 24.402 33.0444 24.402C32.212 24.402 17.6922 17.9437 12.4552 15.6022V18.5557L12.7031 22.6875C12.7072 22.7557 12.7316 22.8206 12.7716 22.876C12.919 23.0802 13.279 23.6132 13.3025 23.9784C13.3264 24.3503 13.0887 24.7579 12.9302 24.9853C12.8521 25.0974 12.8338 25.2441 12.8894 25.3688C12.9963 25.6087 13.162 26.0164 13.2178 26.3508C13.2886 26.7758 13.4187 30.2215 13.4594 31.3397C13.4664 31.5314 13.3128 31.6887 13.1209 31.6887H10.017C9.82261 31.6887 9.66796 31.5277 9.6788 31.3336C9.74007 30.237 9.92762 26.9572 9.99805 26.605C10.0616 26.2873 10.2204 25.6362 10.2959 25.3303C10.3216 25.226 10.2967 25.116 10.2354 25.0278C10.0765 24.7991 9.79078 24.3222 9.82859 23.8937C9.86264 23.5078 10.1435 23.0659 10.2725 22.8809C10.3135 22.8223 10.3382 22.7537 10.3405 22.6822L10.5912 14.7671L7.06593 13.222C6.94268 13.1679 6.86307 13.0461 6.86307 12.9115V11.9945C6.86307 11.8621 6.92353 11.7495 7.04374 11.6942Z" fill="#0051A0"/>
<path d="M33.3833 27.1981C32.8527 27.1981 20.6587 21.7054 18.0943 20.5477C17.8698 20.4463 17.6237 20.6141 17.6237 20.8604V30.0809C17.6237 30.5708 17.9712 30.9883 18.4482 31.1004C24.373 32.4924 32.8171 37.2809 33.3833 37.2809C33.9473 37.2809 42.5546 32.5314 48.134 31.2633C48.6177 31.1533 48.9735 30.7326 48.9735 30.2365V20.6168C48.9735 20.3679 48.7225 20.1999 48.4975 20.3064C45.9388 21.5179 33.9132 27.1981 33.3833 27.1981Z" fill="#0051A0"/>
<path d="M25.9271 38.806C22.5642 37.1553 20.5593 36.269 16.8611 35.671C14.2135 35.2429 12.6797 35.372 9.99805 35.4168C7.92975 35.4514 4.90614 35.7215 3.94699 35.8115C3.77348 35.8277 3.64336 35.9733 3.64336 36.1476V39.7835C3.64336 39.9853 3.81764 40.1427 4.01837 40.1219C4.75933 40.0449 6.44165 39.8782 7.62563 39.8228C11.0987 39.66 13.1059 39.5158 16.5222 40.1617C19.4628 40.7176 21.0527 41.3681 23.8089 42.5341C27.6719 44.1683 32.536 47.872 33.1291 47.872C33.7222 47.872 36.2695 45.8036 38.3823 44.6523C40.3836 43.5619 41.5107 42.9345 43.6356 42.1104C45.6656 41.3231 46.8512 40.9871 48.9735 40.5006C51.3545 39.9547 52.7197 39.7029 55.1587 39.5686C57.7362 39.4266 61.5204 39.8786 62.6847 40.0296C62.8778 40.0546 63.0522 39.9134 63.0684 39.7193L63.3505 36.3332C63.3656 36.1524 63.2374 35.9923 63.0572 35.9712C61.6577 35.807 55.981 35.195 52.1932 35.5863C50.3589 35.7758 49.3332 35.9483 47.5331 36.3489C45.652 36.7675 44.5949 37.0339 42.7883 37.7045C38.6864 39.2272 33.807 43.3814 33.1291 43.3814C32.4513 43.3814 28.9184 40.2742 25.9271 38.806Z" fill="#0051A0"/>
<path d="M15.1665 41.6868C10.0574 40.9318 2.25994 41.9493 0.762046 42.1588C0.610357 42.18 0.496179 42.3009 0.478623 42.453L0.0524575 46.1465C0.0263621 46.3726 0.224298 46.5606 0.448584 46.5215C1.59605 46.3217 4.69973 45.8052 6.86307 45.6691C10.001 45.4716 11.7881 45.4858 14.9123 45.8385C19.3143 46.3355 21.8202 46.8893 25.9271 48.5499C28.9875 49.7873 32.2818 52.278 33.3833 52.278C34.4848 52.278 37.7604 49.7502 40.7548 48.5499C44.7334 46.955 47.2654 46.3113 51.5154 45.7538C56.7106 45.0723 64.3855 46.2136 66.3143 46.5256C66.5404 46.5622 66.7361 46.3698 66.7061 46.1428L66.208 42.3716C66.1877 42.218 66.0685 42.0981 65.9145 42.0808C64.6656 41.941 59.1754 41.3599 55.4977 41.5173C51.29 41.6974 48.9205 41.7507 44.8218 43.0425C40.0232 44.5548 33.8917 49.143 33.1291 49.143C32.3666 49.143 29.3773 46.6613 26.9439 45.4996C22.5058 43.3809 20.0316 42.4058 15.1665 41.6868Z" fill="#0051A0"/>
<path d="M171.886 39.6757C170.608 39.6757 169.47 39.4541 168.471 39.0109C167.471 38.559 166.681 37.8942 166.098 37.0166C165.525 36.1302 165.238 35.0266 165.238 33.7057C165.238 32.5934 165.442 31.6592 165.851 30.9032C166.259 30.1472 166.815 29.5389 167.519 29.0783C168.223 28.6177 169.023 28.2702 169.918 28.0355C170.821 27.8009 171.769 27.6358 172.759 27.5402C173.924 27.4185 174.862 27.3056 175.575 27.2013C176.287 27.0883 176.804 26.9232 177.126 26.706C177.447 26.4887 177.608 26.1672 177.608 25.7414V25.6632C177.608 24.8376 177.347 24.1989 176.826 23.747C176.313 23.2952 175.583 23.0692 174.636 23.0692C173.637 23.0692 172.842 23.2908 172.251 23.734C171.66 24.1685 171.269 24.716 171.078 25.3764L165.942 24.9593C166.203 23.7427 166.715 22.6912 167.48 21.8048C168.245 20.9098 169.231 20.2233 170.439 19.7453C171.656 19.2587 173.063 19.0154 174.662 19.0154C175.775 19.0154 176.839 19.1457 177.856 19.4064C178.881 19.6671 179.789 20.0712 180.58 20.6187C181.38 21.1661 182.01 21.87 182.47 22.7303C182.931 23.5819 183.161 24.603 183.161 25.7935V39.2977H177.895V36.5212H177.738C177.417 37.1469 176.987 37.6987 176.448 38.1767C175.909 38.6459 175.262 39.0152 174.506 39.2846C173.75 39.5453 172.876 39.6757 171.886 39.6757ZM173.476 35.8434C174.293 35.8434 175.014 35.6827 175.64 35.3611C176.266 35.0309 176.757 34.5877 177.113 34.0316C177.469 33.4754 177.647 32.8454 177.647 32.1415V30.0168C177.473 30.1298 177.234 30.2341 176.93 30.3297C176.635 30.4166 176.3 30.4991 175.927 30.5773C175.553 30.6468 175.179 30.712 174.806 30.7728C174.432 30.825 174.093 30.8728 173.789 30.9162C173.137 31.0118 172.568 31.1639 172.081 31.3725C171.595 31.581 171.217 31.8634 170.947 32.2197C170.678 32.5673 170.543 33.0018 170.543 33.5232C170.543 34.2792 170.817 34.8571 171.364 35.2568C171.921 35.6479 172.624 35.8434 173.476 35.8434Z" fill="#0051A0"/>
<path d="M149.844 33.5362L149.857 26.8754H150.665L157.078 19.276H163.452L154.836 29.339H153.52L149.844 33.5362ZM144.812 39.2976V12.6022H150.365V39.2976H144.812ZM157.326 39.2976L151.434 30.5773L155.136 26.6538L163.83 39.2976H157.326Z" fill="#0051A0"/>
<path d="M134.818 30.7729V19.2761H140.371V39.2977H135.039V35.661H134.831C134.379 36.8341 133.627 37.777 132.576 38.4895C131.533 39.2021 130.26 39.5584 128.757 39.5584C127.418 39.5584 126.241 39.2543 125.224 38.646C124.207 38.0377 123.412 37.173 122.839 36.052C122.274 34.931 121.987 33.5884 121.979 32.0242V19.2761H127.531V31.0336C127.54 32.2154 127.857 33.1496 128.483 33.8361C129.109 34.5226 129.947 34.8658 130.999 34.8658C131.668 34.8658 132.293 34.7138 132.876 34.4096C133.458 34.0968 133.927 33.6362 134.283 33.0279C134.648 32.4196 134.827 31.668 134.818 30.7729Z" fill="#0051A0"/>
<path d="M106.021 39.6235C104.5 39.6235 103.123 39.2324 101.889 38.4504C100.663 37.6596 99.69 36.4995 98.9688 34.97C98.2562 33.4319 97.8999 31.5462 97.8999 29.3129C97.8999 27.0188 98.2692 25.1113 99.0079 23.5906C99.7465 22.0612 100.728 20.9184 101.954 20.1624C103.188 19.3977 104.539 19.0153 106.008 19.0153C107.129 19.0153 108.063 19.2065 108.81 19.5889C109.566 19.9625 110.174 20.4318 110.635 20.9966C111.104 21.5528 111.461 22.1003 111.704 22.639H111.873V12.6022H117.413V39.2976H111.938V36.091H111.704C111.443 36.6472 111.074 37.199 110.596 37.7465C110.127 38.2852 109.514 38.7328 108.758 39.0891C108.011 39.4454 107.098 39.6235 106.021 39.6235ZM107.78 35.2047C108.675 35.2047 109.431 34.9613 110.048 34.4747C110.674 33.9794 111.152 33.2885 111.482 32.4022C111.821 31.5158 111.991 30.4773 111.991 29.2868C111.991 28.0963 111.826 27.0622 111.495 26.1845C111.165 25.3068 110.687 24.629 110.061 24.1511C109.436 23.6731 108.675 23.4342 107.78 23.4342C106.868 23.4342 106.099 23.6818 105.473 24.1772C104.847 24.6725 104.374 25.359 104.052 26.2367C103.731 27.1143 103.57 28.1311 103.57 29.2868C103.57 30.4513 103.731 31.481 104.052 32.3761C104.383 33.2625 104.856 33.9577 105.473 34.4617C106.099 34.957 106.868 35.2047 107.78 35.2047Z" fill="#0051A0"/>
<path d="M76.2717 39.2976V12.6022H94.2599V17.2556H81.9158V23.6167H93.3344V28.2701H81.9158V34.6442H94.312V39.2976H76.2717Z" fill="#0051A0"/>
</svg>
