<svg width="195" height="53" viewBox="0 0 195 53" fill="none" xmlns="http://www.w3.org/2000/svg">
<path d="M7.04374 11.6942C9.32625 10.6442 32.4764 0 32.9597 0C33.443 0 56.9737 10.49 59.2959 11.5258C59.4181 11.5803 59.4799 11.694 59.4799 11.8278V12.4922C59.4799 12.6246 59.4193 12.7373 59.299 12.7926C57.0225 13.8387 34.0108 24.402 33.0444 24.402C32.212 24.402 17.6922 17.9437 12.4552 15.6022V18.5557L12.7031 22.6875C12.7072 22.7557 12.7316 22.8206 12.7716 22.876C12.919 23.0802 13.279 23.6132 13.3025 23.9784C13.3264 24.3503 13.0887 24.7579 12.9302 24.9853C12.8521 25.0974 12.8338 25.2441 12.8894 25.3688C12.9963 25.6087 13.162 26.0164 13.2178 26.3508C13.2886 26.7758 13.4187 30.2215 13.4594 31.3397C13.4664 31.5314 13.3128 31.6887 13.1209 31.6887H10.017C9.82261 31.6887 9.66796 31.5277 9.6788 31.3336C9.74007 30.237 9.92762 26.9572 9.99805 26.605C10.0616 26.2873 10.2204 25.6362 10.2959 25.3303C10.3216 25.226 10.2967 25.116 10.2354 25.0278C10.0765 24.7991 9.79078 24.3222 9.82859 23.8937C9.86264 23.5078 10.1435 23.0659 10.2725 22.8809C10.3135 22.8223 10.3382 22.7537 10.3405 22.6822L10.5912 14.7671L7.06593 13.222C6.94268 13.1679 6.86307 13.0461 6.86307 12.9115V11.9945C6.86307 11.8621 6.92353 11.7495 7.04374 11.6942Z" fill="white"/>
<path d="M33.3833 27.1981C32.8527 27.1981 20.6587 21.7054 18.0943 20.5477C17.8698 20.4463 17.6237 20.6141 17.6237 20.8604V30.0809C17.6237 30.5708 17.9712 30.9883 18.4482 31.1004C24.373 32.4924 32.8171 37.2809 33.3833 37.2809C33.9473 37.2809 42.5546 32.5314 48.134 31.2633C48.6177 31.1533 48.9735 30.7326 48.9735 30.2365V20.6168C48.9735 20.3679 48.7225 20.1999 48.4975 20.3064C45.9388 21.5179 33.9132 27.1981 33.3833 27.1981Z" fill="white"/>
<path d="M25.9271 38.806C22.5642 37.1553 20.5593 36.269 16.8611 35.671C14.2135 35.2429 12.6797 35.372 9.99805 35.4168C7.92975 35.4514 4.90614 35.7215 3.94699 35.8115C3.77348 35.8277 3.64336 35.9733 3.64336 36.1476V39.7835C3.64336 39.9853 3.81764 40.1427 4.01837 40.1219C4.75933 40.0449 6.44165 39.8782 7.62563 39.8228C11.0987 39.66 13.1059 39.5158 16.5222 40.1617C19.4628 40.7176 21.0527 41.3681 23.8089 42.5341C27.6719 44.1683 32.536 47.872 33.1291 47.872C33.7222 47.872 36.2695 45.8036 38.3823 44.6523C40.3836 43.5619 41.5107 42.9345 43.6356 42.1104C45.6656 41.3231 46.8512 40.9871 48.9735 40.5006C51.3545 39.9547 52.7197 39.7029 55.1587 39.5686C57.7362 39.4266 61.5204 39.8786 62.6847 40.0296C62.8778 40.0546 63.0522 39.9134 63.0684 39.7193L63.3505 36.3332C63.3656 36.1524 63.2374 35.9923 63.0572 35.9712C61.6577 35.807 55.981 35.195 52.1932 35.5863C50.3589 35.7758 49.3332 35.9483 47.5331 36.3489C45.652 36.7675 44.5949 37.0339 42.7883 37.7045C38.6864 39.2272 33.807 43.3814 33.1291 43.3814C32.4513 43.3814 28.9184 40.2742 25.9271 38.806Z" fill="white"/>
<path d="M15.1665 41.6868C10.0574 40.9318 2.25994 41.9493 0.762046 42.1588C0.610357 42.18 0.496179 42.3009 0.478623 42.453L0.0524575 46.1465C0.0263621 46.3726 0.224298 46.5606 0.448584 46.5215C1.59605 46.3217 4.69973 45.8052 6.86307 45.6691C10.001 45.4716 11.7881 45.4858 14.9123 45.8385C19.3143 46.3355 21.8202 46.8893 25.9271 48.5499C28.9875 49.7873 32.2818 52.278 33.3833 52.278C34.4848 52.278 37.7604 49.7502 40.7548 48.5499C44.7334 46.955 47.2654 46.3113 51.5154 45.7538C56.7106 45.0723 64.3855 46.2136 66.3143 46.5256C66.5404 46.5622 66.7361 46.3698 66.7061 46.1428L66.208 42.3716C66.1877 42.218 66.0685 42.0981 65.9145 42.0808C64.6656 41.941 59.1754 41.3599 55.4977 41.5173C51.29 41.6974 48.9205 41.7507 44.8218 43.0425C40.0232 44.5548 33.8917 49.143 33.1291 49.143C32.3666 49.143 29.3773 46.6613 26.9439 45.4996C22.5058 43.3809 20.0316 42.4058 15.1665 41.6868Z" fill="white"/>
<path d="M82.2678 39.1392V12.4437H100.256V17.0972H87.9119V23.4582H99.3305V28.1116H87.9119V34.4857H100.308V39.1392H82.2678ZM112.017 39.465C110.496 39.465 109.119 39.074 107.885 38.2919C106.659 37.5011 105.686 36.341 104.965 34.8116C104.252 33.2735 103.896 31.3877 103.896 29.1544C103.896 26.8603 104.265 24.9529 105.004 23.4321C105.743 21.9027 106.725 20.76 107.95 20.0039C109.184 19.2392 110.535 18.8569 112.004 18.8569C113.125 18.8569 114.059 19.0481 114.806 19.4304C115.562 19.8041 116.17 20.2733 116.631 20.8382C117.1 21.3943 117.457 21.9418 117.7 22.4806H117.869V12.4437H123.409V39.1392H117.935V35.9326H117.7C117.439 36.4887 117.07 37.0405 116.592 37.588C116.123 38.1268 115.51 38.5743 114.754 38.9306C114.007 39.2869 113.094 39.465 112.017 39.465ZM113.776 35.0462C114.671 35.0462 115.427 34.8029 116.044 34.3163C116.67 33.8209 117.148 33.1301 117.478 32.2437C117.817 31.3573 117.987 30.3189 117.987 29.1284C117.987 27.9378 117.822 26.9037 117.491 26.0261C117.161 25.1484 116.683 24.4706 116.058 23.9926C115.432 23.5147 114.671 23.2757 113.776 23.2757C112.864 23.2757 112.095 23.5234 111.469 24.0187C110.844 24.514 110.37 25.2005 110.048 26.0782C109.727 26.9559 109.566 27.9726 109.566 29.1284C109.566 30.2928 109.727 31.3226 110.048 32.2176C110.379 33.104 110.852 33.7992 111.469 34.3032C112.095 34.7985 112.864 35.0462 113.776 35.0462ZM140.814 30.6143V19.1176H146.367V39.1392H141.036V35.5024H140.827C140.375 36.6756 139.623 37.6184 138.572 38.331C137.529 39.0436 136.256 39.3999 134.753 39.3999C133.415 39.3999 132.237 39.0957 131.22 38.4874C130.204 37.8791 129.408 37.0145 128.835 35.8935C128.27 34.7725 127.983 33.4299 127.975 31.8657V19.1176H133.528V30.875C133.536 32.0569 133.853 32.991 134.479 33.6775C135.105 34.364 135.943 34.7073 136.995 34.7073C137.664 34.7073 138.29 34.5552 138.872 34.2511C139.454 33.9382 139.923 33.4777 140.28 32.8694C140.645 32.2611 140.823 31.5094 140.814 30.6143ZM155.84 33.3777L155.853 26.7169H156.661L163.074 19.1176H169.448L160.832 29.1805H159.516L155.84 33.3777ZM150.809 39.1392V12.4437H156.361V39.1392H150.809ZM163.322 39.1392L157.43 30.4188L161.132 26.4953L169.826 39.1392H163.322ZM177.882 39.5172C176.605 39.5172 175.466 39.2956 174.467 38.8524C173.468 38.4005 172.677 37.7357 172.094 36.8581C171.521 35.9717 171.234 34.8681 171.234 33.5472C171.234 32.4349 171.438 31.5007 171.847 30.7447C172.255 29.9887 172.811 29.3804 173.515 28.9198C174.219 28.4592 175.019 28.1116 175.914 27.877C176.817 27.6424 177.765 27.4773 178.755 27.3817C179.92 27.26 180.858 27.1471 181.571 27.0428C182.283 26.9298 182.8 26.7647 183.122 26.5475C183.444 26.3302 183.604 26.0087 183.604 25.5829V25.5047C183.604 24.6791 183.344 24.0404 182.822 23.5885C182.31 23.1367 181.58 22.9107 180.632 22.9107C179.633 22.9107 178.838 23.1323 178.247 23.5755C177.656 24.01 177.265 24.5575 177.074 25.2179L171.938 24.8008C172.199 23.5842 172.711 22.5327 173.476 21.6463C174.241 20.7513 175.227 20.0648 176.435 19.5868C177.652 19.1002 179.059 18.8569 180.658 18.8569C181.771 18.8569 182.835 18.9872 183.852 19.2479C184.877 19.5086 185.785 19.9127 186.576 20.4602C187.376 21.0076 188.006 21.7115 188.466 22.5718C188.927 23.4234 189.157 24.4445 189.157 25.635V39.1392H183.891V36.3627H183.735C183.413 36.9884 182.983 37.5402 182.444 38.0182C181.905 38.4874 181.258 38.8567 180.502 39.1261C179.746 39.3868 178.873 39.5172 177.882 39.5172ZM179.472 35.6849C180.289 35.6849 181.01 35.5242 181.636 35.2026C182.262 34.8724 182.753 34.4292 183.109 33.8731C183.465 33.3169 183.643 32.6869 183.643 31.983V29.8583C183.47 29.9713 183.231 30.0756 182.926 30.1712C182.631 30.2581 182.296 30.3406 181.923 30.4188C181.549 30.4883 181.175 30.5535 180.802 30.6143C180.428 30.6665 180.089 30.7143 179.785 30.7577C179.133 30.8533 178.564 31.0054 178.078 31.2139C177.591 31.4225 177.213 31.7049 176.943 32.0612C176.674 32.4088 176.539 32.8433 176.539 33.3647C176.539 34.1207 176.813 34.6986 177.361 35.0983C177.917 35.4894 178.621 35.6849 179.472 35.6849Z" fill="white"/>
</svg>
