<svg width="67" height="53" viewBox="0 0 67 53" fill="none" xmlns="http://www.w3.org/2000/svg">
<path d="M6.99357 11.6942C9.27608 10.6442 32.4262 0 32.9095 0C33.3928 0 56.9235 10.49 59.2458 11.5258C59.3679 11.5803 59.4298 11.694 59.4298 11.8278V12.4922C59.4298 12.6246 59.3691 12.7373 59.2488 12.7926C56.9723 13.8387 33.9606 24.402 32.9942 24.402C32.1618 24.402 17.642 17.9437 12.405 15.6022V18.5557L12.6529 22.6875C12.657 22.7557 12.6814 22.8206 12.7214 22.876C12.8688 23.0802 13.2288 23.6132 13.2523 23.9784C13.2763 24.3503 13.0386 24.7579 12.88 24.9853C12.8019 25.0974 12.7837 25.2441 12.8393 25.3688C12.9461 25.6087 13.1119 26.0164 13.1676 26.3508C13.2384 26.7758 13.3685 30.2215 13.4092 31.3397C13.4162 31.5314 13.2626 31.6887 13.0708 31.6887H9.96687C9.77244 31.6887 9.61778 31.5277 9.62863 31.3336C9.6899 30.237 9.87744 26.9572 9.94788 26.605C10.0114 26.2873 10.1702 25.6362 10.2457 25.3303C10.2714 25.226 10.2465 25.116 10.1852 25.0278C10.0263 24.7991 9.74061 24.3222 9.77842 23.8937C9.81247 23.5078 10.0933 23.0659 10.2224 22.8809C10.2633 22.8223 10.288 22.7537 10.2903 22.6822L10.541 14.7671L7.01576 13.222C6.89251 13.1679 6.8129 13.0461 6.8129 12.9115V11.9945C6.8129 11.8621 6.87336 11.7495 6.99357 11.6942Z" fill="#0051A0"/>
<path d="M33.3332 27.1981C32.8026 27.1981 20.6085 21.7054 18.0441 20.5477C17.8197 20.4463 17.5735 20.6141 17.5735 20.8604V30.0809C17.5735 30.5708 17.9211 30.9883 18.398 31.1004C24.3228 32.4924 32.7669 37.2809 33.3332 37.2809C33.8971 37.2809 42.5044 32.5314 48.0838 31.2633C48.5675 31.1533 48.9233 30.7326 48.9233 30.2365V20.6168C48.9233 20.3679 48.6723 20.1999 48.4473 20.3064C45.8886 21.5179 33.863 27.1981 33.3332 27.1981Z" fill="#0051A0"/>
<path d="M25.877 38.806C22.514 37.1553 20.5091 36.269 16.8109 35.671C14.1633 35.2429 12.6295 35.372 9.94788 35.4168C7.87958 35.4514 4.85597 35.7215 3.89682 35.8115C3.72331 35.8277 3.59319 35.9733 3.59319 36.1476V39.7835C3.59319 39.9853 3.76747 40.1427 3.9682 40.1219C4.70916 40.0449 6.39148 39.8782 7.57546 39.8228C11.0485 39.66 13.0557 39.5158 16.472 40.1617C19.4126 40.7176 21.0026 41.3681 23.7587 42.5341C27.6218 44.1683 32.4859 47.872 33.079 47.872C33.6721 47.872 36.2193 45.8036 38.3322 44.6523C40.3334 43.5619 41.4606 42.9345 43.5854 42.1104C45.6154 41.3231 46.8011 40.9871 48.9233 40.5006C51.3043 39.9547 52.6695 39.7029 55.1086 39.5686C57.6861 39.4266 61.4702 39.8786 62.6345 40.0296C62.8277 40.0546 63.002 39.9134 63.0182 39.7193L63.3004 36.3332C63.3154 36.1524 63.1872 35.9923 63.007 35.9712C61.6076 35.807 55.9308 35.195 52.143 35.5863C50.3087 35.7758 49.283 35.9483 47.4829 36.3489C45.6018 36.7675 44.5448 37.0339 42.7381 37.7045C38.6362 39.2272 33.7568 43.3814 33.079 43.3814C32.4011 43.3814 28.8682 40.2742 25.877 38.806Z" fill="#0051A0"/>
<path d="M15.1164 41.6868C10.0072 40.9318 2.20977 41.9493 0.711875 42.1588C0.560186 42.18 0.446008 42.3009 0.428452 42.453L0.00228659 46.1465C-0.0238088 46.3726 0.174127 46.5606 0.398414 46.5215C1.54587 46.3217 4.64955 45.8052 6.8129 45.6691C9.95083 45.4716 11.7379 45.4858 14.8622 45.8385C19.2642 46.3355 21.77 46.8893 25.877 48.5499C28.9374 49.7873 32.2317 52.278 33.3332 52.278C34.4346 52.278 37.7103 49.7502 40.7046 48.5499C44.6832 46.955 47.2152 46.3113 51.4652 45.7538C56.6604 45.0723 64.3353 46.2136 66.2641 46.5256C66.4902 46.5622 66.6859 46.3698 66.6559 46.1428L66.1579 42.3716C66.1376 42.218 66.0183 42.0981 65.8643 42.0808C64.6154 41.941 59.1252 41.3599 55.4475 41.5173C51.2398 41.6974 48.8703 41.7507 44.7716 43.0425C39.973 44.5548 33.8415 49.143 33.079 49.143C32.3164 49.143 29.3272 46.6613 26.8937 45.4996C22.4556 43.3809 19.9814 42.4058 15.1164 41.6868Z" fill="#0051A0"/>
</svg>
